<?xml version="1.0" standalone="no"?>
<!DOCTYPE svg PUBLIC "-//W3C//DTD SVG 20010904//EN"
 "http://www.w3.org/TR/2001/REC-SVG-20010904/DTD/svg10.dtd">
<svg version="1.0" xmlns="http://www.w3.org/2000/svg"
 width="656.000000pt" height="656.000000pt" viewBox="0 0 656.000000 656.000000"
 preserveAspectRatio="xMidYMid meet">
<metadata>
Created by potrace 1.14, written by Peter Selinger 2001-2017
</metadata>
<g transform="translate(0.000000,656.000000) scale(0.100000,-0.100000)"
fill="#000000" stroke="none">
<path d="M4581 5719 c-106 -32 -193 -135 -204 -244 -20 -195 174 -355 362
-298 99 30 175 107 198 203 7 29 6 115 -1 135 -5 11 -12 32 -18 47 -9 24 -25
48 -57 83 -17 19 -47 40 -76 54 -17 7 -37 17 -45 20 -23 11 -121 11 -159 0z"/>
<path d="M2325 5695 c-27 -6 -65 -19 -82 -28 -18 -10 -33 -15 -33 -11 0 8 -87
-62 -114 -91 -53 -57 -115 -183 -98 -199 3 -3 1 -6 -4 -6 -6 0 -9 -31 -8 -74
2 -77 21 -144 60 -206 53 -86 186 -173 286 -186 30 -4 49 -12 53 -23 60 -149
67 -178 70 -276 3 -124 -7 -150 -76 -201 -30 -21 -59 -43 -65 -49 -7 -5 -30
-25 -53 -44 -23 -18 -65 -59 -94 -89 -104 -111 -92 -103 -144 -97 -27 3 -73 7
-104 10 -40 3 -78 17 -130 44 -41 22 -103 54 -138 73 -49 25 -65 39 -68 58 -5
32 -48 97 -87 132 -125 111 -347 68 -424 -82 -17 -33 -42 -130 -34 -130 4 0 8
-18 9 -40 3 -48 36 -116 73 -150 58 -54 67 -59 140 -77 35 -8 78 -7 125 3 49
10 50 10 170 -52 112 -57 164 -97 225 -169 61 -73 60 -64 33 -188 -20 -88 -26
-143 -27 -257 -1 -159 4 -216 29 -334 l17 -78 -39 -41 c-116 -122 -131 -135
-225 -180 -53 -26 -99 -47 -101 -47 -3 0 -31 16 -63 35 -72 43 -121 58 -199
60 -244 5 -432 -246 -369 -493 30 -117 115 -227 214 -277 193 -98 421 -20 512
175 26 56 44 130 39 163 -2 12 5 21 18 24 12 3 21 9 21 14 0 5 4 8 8 6 10 -3
105 45 114 58 4 6 8 7 8 2 0 -4 14 0 31 9 18 9 48 17 68 19 105 9 177 17 182
21 4 2 26 -19 50 -47 24 -28 66 -72 93 -98 27 -25 55 -52 63 -60 17 -16 141
-109 161 -120 7 -4 15 -34 17 -72 3 -35 7 -73 9 -84 1 -11 -1 -27 -6 -35 -4
-8 -21 -49 -37 -90 -24 -62 -36 -79 -65 -96 -139 -80 -189 -234 -120 -372 49
-97 130 -146 244 -147 91 0 144 23 206 91 71 76 89 181 48 293 l-17 49 33 79
c19 43 44 87 56 98 102 93 91 88 163 80 88 -9 345 -11 401 -2 93 14 117 19
200 43 139 41 139 41 206 -15 18 -14 51 -42 75 -61 66 -53 80 -70 148 -179
l62 -101 -20 -55 c-78 -207 40 -435 258 -501 26 -8 79 -12 125 -10 67 2 93 8
147 34 79 38 149 109 187 190 24 50 27 69 27 157 0 93 -2 105 -33 167 -40 82
-122 159 -202 189 -31 12 -89 24 -133 27 -60 3 -80 8 -85 21 -3 9 -8 18 -12
21 -3 3 -29 41 -57 86 -43 69 -65 125 -88 225 -2 9 -7 32 -12 50 -5 19 -8 40
-7 47 1 6 2 20 3 31 0 10 13 31 29 47 72 77 164 201 197 265 10 19 21 36 24
39 4 3 15 25 25 50 24 56 63 96 102 104 128 26 262 27 369 2 6 -1 55 -10 110
-20 99 -18 100 -19 133 -62 109 -146 353 -130 452 31 28 46 34 68 34 150 0 79
-19 126 -74 184 -91 94 -258 109 -357 31 -21 -16 -28 -16 -170 12 -81 16 -160
30 -176 33 -15 2 -69 26 -119 54 -50 28 -93 51 -95 51 -10 0 -42 38 -56 65 -8
17 -17 57 -21 90 -7 65 -21 156 -32 195 -9 34 -13 107 -7 129 4 17 35 53 141
165 24 25 49 46 57 46 7 0 15 5 17 11 2 5 11 11 20 12 9 2 22 8 29 13 8 6 44
27 80 47 67 37 67 37 105 21 56 -23 81 -28 155 -27 52 1 80 7 130 31 35 17 74
40 86 51 55 51 103 146 110 216 2 17 4 35 4 40 3 28 -15 105 -33 145 -41 86
-108 147 -197 180 -95 34 -257 11 -318 -47 -7 -6 -16 -13 -20 -15 -13 -5 -77
-90 -91 -118 -17 -37 -34 -110 -29 -124 3 -8 -41 -38 -111 -77 -126 -69 -132
-72 -237 -93 -165 -35 -176 -33 -265 54 -36 34 -81 74 -100 89 -19 14 -44 34
-54 44 -11 9 -25 17 -32 17 -6 0 -14 7 -18 15 -3 8 -11 15 -18 15 -17 1 -50
29 -71 60 -9 14 -19 50 -23 80 -3 30 -8 56 -9 58 -2 2 12 47 30 100 27 82 38
100 66 120 60 39 108 101 125 160 52 179 -75 352 -261 355 -206 3 -342 -218
-247 -401 l19 -37 -29 -85 c-28 -84 -77 -150 -133 -183 -17 -10 -207 -17 -410
-16 -33 0 -71 21 -98 55 -10 13 -35 42 -57 66 -27 30 -49 71 -72 133 -18 50
-33 95 -33 100 0 6 17 28 37 50 75 79 115 197 105 304 -10 97 -42 165 -112
237 -106 109 -267 155 -420 119z"/>
<path d="M5183 2129 c-22 -11 -54 -39 -70 -61 -24 -35 -28 -51 -28 -108 0 -56
4 -73 27 -106 37 -53 78 -75 149 -81 50 -5 65 -2 103 21 115 67 134 210 40
301 -61 60 -144 72 -221 34z"/>
<path d="M1455 1325 c-70 -21 -155 -78 -155 -105 0 -5 -4 -10 -8 -10 -19 0
-59 -125 -56 -170 7 -93 49 -172 122 -227 116 -88 292 -70 387 40 50 59 51 60
58 87 3 14 8 36 11 50 49 200 -160 395 -359 335z"/>
</g>
</svg>
