<svg width="522" height="284" viewBox="0 0 522 284" fill="none" xmlns="http://www.w3.org/2000/svg">
<rect width="521.17" height="284" rx="8" fill="white"/>
<g opacity="0.5">
<path opacity="0.1" d="M204.844 259.185C221.041 259.185 234.171 257.081 234.171 254.484C234.171 251.887 221.041 249.782 204.844 249.782C188.647 249.782 175.516 251.887 175.516 254.484C175.516 257.081 188.647 259.185 204.844 259.185Z" fill="#587EEC"/>
<path opacity="0.1" d="M364.263 259.317C384.474 259.317 400.859 257.213 400.859 254.616C400.859 252.019 384.474 249.915 364.263 249.915C344.052 249.915 327.667 252.019 327.667 254.616C327.667 257.213 344.052 259.317 364.263 259.317Z" fill="#587EEC"/>
<path opacity="0.1" d="M98.4359 125.772H128.982V167.328H100.672C100.597 167.755 100.525 168.184 100.446 168.614H128.982V202.128C128.931 202.113 128.886 202.095 128.838 202.077C128.031 201.758 127.231 201.422 126.43 201.061L125.918 200.83C125.116 200.452 124.313 200.051 123.51 199.628C123.231 199.481 122.951 199.328 122.674 199.172C118.218 196.681 114.17 193.524 110.671 189.811C110.568 189.712 110.472 189.607 110.37 189.511C109.882 188.982 109.404 188.447 108.94 187.9L108.428 187.3C107.881 186.63 107.351 185.942 106.836 185.245C106.761 185.143 106.689 185.04 106.61 184.944C104.517 182.047 102.779 178.911 101.434 175.601C101.392 175.502 101.355 175.394 101.316 175.301C100.903 174.24 100.537 173.168 100.218 172.087C100.079 171.633 99.9468 171.185 99.8325 170.714C99.7903 170.575 99.7542 170.44 99.7211 170.305C98.0115 163.645 97.8099 156.726 97.8099 149.856C97.8099 149.054 97.8099 148.249 97.8099 147.453C97.8099 144.674 97.843 141.877 97.8911 139.083C97.8911 138.359 97.9212 137.638 97.9363 136.911C97.9784 135.067 98.0386 133.222 98.1169 131.378C98.1349 130.864 98.159 130.353 98.1861 129.842C98.1861 129.548 98.2011 129.254 98.2312 128.959C98.3035 127.89 98.3637 126.829 98.4359 125.772Z" fill="#587EEC"/>
<path opacity="0.1" d="M128.982 79.5022H112.227C114.95 75.2471 117.926 71.1582 121.139 67.2573C123.628 64.2051 126.255 61.2311 128.982 58.3651V79.5022Z" fill="#587EEC"/>
<path opacity="0.1" d="M128.982 80.788V124.486H98.5322C98.5322 124.36 98.5533 124.231 98.5623 124.105C98.5894 123.759 98.6165 123.414 98.6466 123.071C98.6797 122.669 98.7158 122.263 98.7549 121.869C98.7941 121.476 98.8362 120.995 98.8814 120.56C98.9265 120.124 98.9686 119.682 99.0198 119.247C99.071 118.811 99.1161 118.376 99.1703 117.943C99.2245 117.51 99.2726 117.072 99.3298 116.639C99.375 116.279 99.4231 115.921 99.4713 115.561C99.5405 115.053 99.6127 114.542 99.691 114.038C99.691 113.963 99.7121 113.884 99.7241 113.812C100.273 110.118 101.022 106.455 101.966 102.841C102.955 99.05 104.217 95.3352 105.744 91.726C107.366 87.9503 109.265 84.2994 111.426 80.803L128.982 80.788Z" fill="#587EEC"/>
<path opacity="0.1" d="M136.275 125.769V167.328H201.518V125.769H136.275ZM136.275 168.611V204.3C136.648 204.378 137.018 204.453 137.386 204.516C137.885 204.612 138.382 204.7 138.89 204.775C138.987 204.79 139.086 204.805 139.191 204.814C139.39 204.847 139.595 204.874 139.793 204.901C140.296 204.97 140.796 205.027 141.298 205.072C141.536 205.096 141.777 205.117 142.018 205.135L142.598 205.18C142.914 205.204 143.227 205.222 143.538 205.231C143.73 205.231 143.923 205.249 144.121 205.255C144.272 205.255 144.422 205.255 144.579 205.255C144.735 205.255 144.958 205.255 145.148 205.255C145.407 205.255 145.665 205.255 145.921 205.255H146.267C146.526 205.255 146.785 205.255 147.041 205.231H147.059C147.237 205.231 147.417 205.231 147.598 205.207C147.648 205.21 147.698 205.21 147.748 205.207C147.899 205.207 148.049 205.207 148.194 205.186H148.299L149.307 205.108C149.638 205.078 149.972 205.039 150.31 205.003L150.996 204.922C153.788 204.531 156.548 203.945 159.258 203.167C165.343 201.473 171.297 199.103 177.38 197.366C185.244 195.128 193.933 194.029 201.533 196.766V168.611H136.275ZM201.518 79.5023V24.1752C194.375 24.098 187.251 24.9318 180.32 26.6566C163.799 30.7993 148.976 39.7847 136.275 51.2605V79.4993H139.55V80.7821H136.275V124.486H201.518V80.7851H152.994V79.5023H201.518ZM285.319 60.8136C281.232 60.6694 277.169 59.3776 273.494 57.3829C266.466 53.5676 260.853 47.6765 254.58 42.7047C241.548 32.3494 225.386 26.1009 208.805 24.5507V79.5023H301.942L302.174 79.259L285.319 60.8136ZM293.804 59.3115L302.8 69.1651V56.728C299.787 57.1005 297.148 57.9867 293.816 59.2995L293.804 59.3115ZM302.8 213.162V168.611H283.631C283.58 168.422 283.529 168.229 283.468 168.037C283.526 168.229 283.574 168.422 283.628 168.611H208.817V200.83C209.527 201.356 210.228 201.909 210.924 202.47C211.673 203.071 212.413 203.705 213.157 204.327L213.906 204.946C214.264 205.246 214.626 205.547 214.99 205.829C215.712 206.414 216.441 206.991 217.178 207.559C217.542 207.86 217.915 208.13 218.285 208.413C224.163 212.898 230.363 216.945 236.835 220.522C238.285 221.323 239.749 222.105 241.226 222.869C242.21 223.37 243.2 223.869 244.194 224.353C245.687 225.08 247.191 225.781 248.708 226.455C262.694 232.722 277.482 237.021 292.651 239.232C296.02 239.729 299.402 240.119 302.797 240.404V213.159H303.098L302.8 213.162ZM208.817 80.7851V124.486H302.812V80.7851H208.817ZM208.817 125.769V167.328H302.812V125.769H208.817ZM310.108 56.6739V70.547L321.59 57.9717C317.786 57.3589 313.958 56.9213 310.108 56.6589V56.6739ZM310.108 125.784V167.328H401.53V125.769L310.108 125.784ZM401.196 216.461L401.518 168.611H310.108V240.881C315.997 241.128 321.894 241.058 327.775 240.671H327.878C330.687 240.495 333.483 240.238 336.266 239.902H336.329C351.177 238.177 365.695 234.311 379.429 228.423L401.196 216.461ZM419.158 132.612C418.815 131.804 418.457 131.002 418.093 130.209C417.413 128.707 416.693 127.247 415.953 125.787H408.82V167.328H426.854C426.845 155.564 423.863 143.547 419.167 132.597L419.158 132.612ZM408.82 168.626V209.783C413.9 204.922 418.192 199.361 421.283 193.004C425 185.35 426.701 177.062 426.839 168.62L408.82 168.626ZM408.82 113.674V124.489H415.285C413.329 120.766 411.174 117.151 408.829 113.659L408.82 113.674ZM346.818 64.8271C346.343 64.6469 345.867 64.4636 345.389 64.2864C340.342 62.426 335.184 60.8789 329.945 59.654L312.374 78.9015L312.037 79.259L312.263 79.5053H374.8C366.091 73.5212 356.701 68.5891 346.827 64.8121L346.818 64.8271ZM376.633 80.8001H311.39L310.108 81.9717V124.486H321.347H321.365H401.542V103.893C394.289 95.1376 385.918 87.3688 376.642 80.7851L376.633 80.8001Z" fill="#587EEC"/>
<path opacity="0.1" d="M128.982 102.829V124.486H98.5322C98.5322 124.36 98.5533 124.231 98.5623 124.105C98.5894 123.759 98.6165 123.414 98.6466 123.071C98.6797 122.669 98.7158 122.263 98.7549 121.87C98.7941 121.476 98.8362 120.995 98.8814 120.56C98.9265 120.124 98.9686 119.683 99.0198 119.247C99.071 118.811 99.1161 118.376 99.1703 117.943C99.2245 117.511 99.2726 117.072 99.3298 116.639C99.375 116.279 99.4231 115.921 99.4713 115.561C99.5405 115.053 99.6127 114.542 99.691 114.038C99.691 113.963 99.7121 113.885 99.7241 113.812C100.273 110.118 101.022 106.456 101.966 102.841L128.982 102.829Z" fill="#587EEC"/>
<path opacity="0.1" d="M98.4359 125.772H128.982V167.328H100.672C100.597 167.755 100.525 168.184 100.446 168.614H128.982V202.128C128.931 202.113 128.886 202.095 128.838 202.077C128.031 201.758 127.231 201.422 126.43 201.061L125.918 200.83C125.116 200.452 124.313 200.051 123.51 199.628C123.231 199.481 122.951 199.328 122.674 199.172C118.218 196.681 114.17 193.524 110.671 189.811C110.568 189.712 110.472 189.607 110.37 189.511C109.882 188.982 109.404 188.447 108.94 187.9L108.428 187.3C107.881 186.63 107.351 185.942 106.836 185.245C106.761 185.143 106.689 185.04 106.61 184.944C104.517 182.047 102.779 178.911 101.434 175.601C101.392 175.502 101.355 175.394 101.316 175.301C100.903 174.24 100.537 173.168 100.218 172.087C100.079 171.633 99.9468 171.185 99.8325 170.714C99.7903 170.575 99.7542 170.44 99.7211 170.305C98.0115 163.645 97.8099 156.726 97.8099 149.856C97.8099 149.054 97.8099 148.249 97.8099 147.453C97.8099 144.674 97.843 141.877 97.8911 139.083C97.8911 138.359 97.9212 137.638 97.9363 136.911C97.9784 135.067 98.0386 133.222 98.1169 131.378C98.1349 130.864 98.159 130.353 98.1861 129.842C98.1861 129.548 98.2011 129.254 98.2312 128.959C98.3035 127.89 98.3637 126.829 98.4359 125.772Z" fill="#587EEC"/>
<path opacity="0.1" d="M159.243 87.0426V124.486H136.275V87.0426H139.55V74.3651H152.991V87.0426H159.243Z" fill="#587EEC"/>
<path opacity="0.1" d="M159.243 125.769H136.278V167.325H159.243V125.769Z" fill="#587EEC"/>
<path opacity="0.1" d="M136.275 168.614H159.243V203.161C156.533 203.938 153.772 204.524 150.981 204.913L150.294 204.997C149.957 205.036 149.623 205.069 149.292 205.102C148.961 205.135 148.618 205.159 148.284 205.18H148.179C148.034 205.18 147.878 205.198 147.736 205.201H147.583C147.402 205.201 147.221 205.219 147.041 205.225C146.785 205.24 146.529 205.243 146.267 205.246C146.156 205.246 146.051 205.246 145.939 205.246C145.68 205.246 145.425 205.246 145.166 205.246H144.597C144.443 205.246 144.296 205.246 144.136 205.246L143.556 205.225C143.255 205.225 142.93 205.192 142.617 205.171L142.039 205.129L141.319 205.063C140.814 205.018 140.311 204.961 139.814 204.892L139.212 204.808L138.911 204.766C138.409 204.687 137.912 204.603 137.407 204.507C137.036 204.444 136.669 204.366 136.296 204.291L136.275 168.614Z" fill="#587EEC"/>
<path opacity="0.1" d="M302.812 82.6206H283.875V124.483H302.812V82.6206Z" fill="#587EEC"/>
<path opacity="0.1" d="M302.815 125.769V167.328H208.817V149.402H258.885V159.977H283.875V125.769H302.815Z" fill="#587EEC"/>
<path opacity="0.1" d="M303.113 213.171H302.812V240.434C299.421 240.147 296.04 239.758 292.669 239.265C277.493 237.047 262.698 232.738 248.708 226.461C244.669 224.647 240.712 222.666 236.838 220.519C230.366 216.94 224.165 212.893 218.286 208.41C216.809 207.28 215.351 206.124 213.912 204.943C212.916 204.123 211.926 203.282 210.924 202.464C210.228 201.903 209.527 201.35 208.817 200.821V168.614H283.625C283.574 168.422 283.523 168.229 283.468 168.04C283.526 168.229 283.58 168.422 283.631 168.614H302.812V213.153C302.915 213.156 303.014 213.165 303.113 213.171Z" fill="#587EEC"/>
<path opacity="0.1" d="M352.203 79.5021H339.863V75.6749H345.395V64.2742C345.874 64.4484 346.352 64.6277 346.827 64.8119V75.6749H352.203V79.5021Z" fill="#587EEC"/>
<path opacity="0.1" d="M381.933 124.486H321.353C321.353 124.486 321.353 124.486 321.374 124.501L321.347 124.486H310.108V82.6235H313.292V113.566H327.845V95.2409H339.866V80.788H352.206V95.2529H364.227V113.578H381.933V124.486Z" fill="#587EEC"/>
<path opacity="0.1" d="M310.108 125.769V167.328H381.933V125.769H310.108ZM401.431 216.247L401.53 183.352H381.933V168.632H310.108V240.881C315.997 241.128 321.894 241.058 327.775 240.671H327.878C330.687 240.495 333.483 240.238 336.266 239.902H336.329C351.177 238.177 365.695 234.311 379.429 228.423" fill="#587EEC"/>
<path opacity="0.1" d="M410.096 168.614H426.851C426.704 177.052 425.006 185.341 421.292 192.995C418.201 199.355 413.906 204.916 408.832 209.773V183.337H410.096V168.614Z" fill="#587EEC"/>
<path opacity="0.1" d="M426.861 167.328H410.096V132.597H419.168C423.863 143.547 426.845 155.564 426.861 167.328Z" fill="#587EEC"/>
<path opacity="0.1" d="M302.815 94.2585H292.669V107.384H302.815V94.2585Z" fill="#587EEC"/>
<path opacity="0.1" d="M302.815 121.464H292.669V124.486H302.815V121.464Z" fill="#587EEC"/>
<path opacity="0.1" d="M302.815 125.769H292.669V134.586H302.815V125.769Z" fill="#587EEC"/>
<path opacity="0.1" d="M302.815 148.669H292.669V161.794H302.815V148.669Z" fill="#587EEC"/>
<path opacity="0.1" d="M302.815 175.875H292.669V189H302.815V175.875Z" fill="#587EEC"/>
<path opacity="0.1" d="M302.812 213.153C302.915 213.153 303.014 213.153 303.113 213.171H302.812V216.22H292.669V203.08H302.812V213.153Z" fill="#587EEC"/>
<path opacity="0.1" d="M302.812 230.28V240.418C299.421 240.132 296.04 239.743 292.669 239.25V230.28H302.812Z" fill="#587EEC"/>
<path opacity="0.1" d="M252.299 166.364H208.817V167.328H252.299V166.364Z" fill="#587EEC"/>
<path opacity="0.1" d="M252.299 168.611H208.817V172.306H252.299V168.611Z" fill="#587EEC"/>
<path opacity="0.1" d="M252.299 184.419H208.817V190.361H252.299V184.419Z" fill="#587EEC"/>
<path opacity="0.1" d="M252.296 202.474V208.416H218.286C216.809 207.29 215.35 206.135 213.909 204.949C212.913 204.129 211.926 203.288 210.921 202.474H252.296Z" fill="#587EEC"/>
<path opacity="0.1" d="M252.296 220.525V226.461H248.705C244.67 224.645 240.714 222.663 236.838 220.516L252.296 220.525Z" fill="#587EEC"/>
<path opacity="0.1" d="M336.338 129.797H327.778V138.341H336.338V129.797Z" fill="#587EEC"/>
<path opacity="0.1" d="M151.002 89.9897H142.442V98.5335H151.002V89.9897Z" fill="#587EEC"/>
<path opacity="0.1" d="M151.002 109.835H142.442V118.379H151.002V109.835Z" fill="#587EEC"/>
<path opacity="0.1" d="M151.002 129.68H142.442V138.224H151.002V129.68Z" fill="#587EEC"/>
<path opacity="0.1" d="M151.002 149.523H142.442V158.066H151.002V149.523Z" fill="#587EEC"/>
<path opacity="0.1" d="M151.002 169.368H142.442V177.912H151.002V169.368Z" fill="#587EEC"/>
<path opacity="0.1" d="M151.002 189.213H142.442V197.757H151.002V189.213Z" fill="#587EEC"/>
<path opacity="0.1" d="M369.015 129.797H360.456V138.341H369.015V129.797Z" fill="#587EEC"/>
<path opacity="0.1" d="M336.338 150.871H327.778V159.415H336.338V150.871Z" fill="#587EEC"/>
<path opacity="0.1" d="M369.015 150.871H360.456V159.415H369.015V150.871Z" fill="#587EEC"/>
<path opacity="0.1" d="M336.338 171.942H327.778V180.486H336.338V171.942Z" fill="#587EEC"/>
<path opacity="0.1" d="M369.015 171.942H360.456V180.486H369.015V171.942Z" fill="#587EEC"/>
<path opacity="0.1" d="M336.338 193.016H327.778V201.56H336.338V193.016Z" fill="#587EEC"/>
<path opacity="0.1" d="M369.015 193.016H360.456V201.56H369.015V193.016Z" fill="#587EEC"/>
<path opacity="0.1" d="M336.338 214.09H327.778V222.634H336.338V214.09Z" fill="#587EEC"/>
<path opacity="0.1" d="M369.015 214.09H360.456V222.634H369.015V214.09Z" fill="#587EEC"/>
<path opacity="0.1" d="M327.778 240.671V235.161H336.335V239.887L327.778 240.671Z" fill="#587EEC"/>
<path opacity="0.1" d="M99.688 113.807V118.694H128.982V113.807H99.688ZM102.607 118.388H100.218V114.107H102.626L102.607 118.388ZM105.524 118.388H103.116V114.107H105.524V118.388ZM108.434 118.388H106.027V114.107H108.434V118.388ZM111.351 118.388H108.946V114.107H111.354L111.351 118.388ZM114.264 118.388H111.857V114.107H114.264V118.388ZM117.181 118.388H114.773V114.107H117.181V118.388ZM120.097 118.388H117.69V114.107H120.097V118.388ZM123.011 118.388H120.603V114.107H123.011V118.388ZM125.924 118.388H123.516V114.107H125.924V118.388ZM128.838 118.388H126.43V114.107H128.838V118.388Z" fill="#587EEC"/>
<path opacity="0.1" d="M99.688 128.028V132.916H128.982V128.028H99.688ZM102.607 132.606H100.218V128.338H102.626L102.607 132.606ZM105.524 132.606H103.116V128.338H105.524V132.606ZM108.434 132.606H106.027V128.338H108.434V132.606ZM111.351 132.606H108.946V128.338H111.354L111.351 132.606ZM114.264 132.606H111.857V128.338H114.264V132.606ZM117.181 132.606H114.773V128.338H117.181V132.606ZM120.097 132.606H117.69V128.338H120.097V132.606ZM123.011 132.606H120.603V128.338H123.011V132.606ZM125.924 132.606H123.516V128.338H125.924V132.606ZM128.838 132.606H126.43V128.338H128.838V132.606Z" fill="#587EEC"/>
<path opacity="0.1" d="M99.688 142.255V147.152H128.982V142.255H99.688ZM102.607 146.834H100.218V142.562H102.626L102.607 146.834ZM105.524 146.834H103.116V142.562H105.524V146.834ZM108.434 146.834H106.027V142.562H108.434V146.834ZM111.351 146.834H108.946V142.562H111.354L111.351 146.834ZM114.264 146.834H111.857V142.562H114.264V146.834ZM117.181 146.834H114.773V142.562H117.181V146.834ZM120.097 146.834H117.69V142.562H120.097V146.834ZM123.011 146.834H120.603V142.562H123.011V146.834ZM125.924 146.834H123.516V142.562H125.924V146.834ZM128.838 146.834H126.43V142.562H128.838V146.834Z" fill="#587EEC"/>
<path opacity="0.1" d="M99.688 156.483V161.365H128.982V156.483H99.688ZM102.607 161.061H100.218V156.786H102.626L102.607 161.061ZM105.524 161.061H103.116V156.786H105.524V161.061ZM108.434 161.061H106.027V156.786H108.434V161.061ZM111.351 161.061H108.946V156.786H111.354L111.351 161.061ZM114.264 161.061H111.857V156.786H114.264V161.061ZM117.181 161.061H114.773V156.786H117.181V161.061ZM120.097 161.061H117.69V156.786H120.097V161.061ZM123.011 161.061H120.603V156.786H123.011V161.061ZM125.924 161.061H123.516V156.786H125.924V161.061ZM128.838 161.061H126.43V156.786H128.838V161.061Z" fill="#587EEC"/>
<path opacity="0.1" d="M99.8144 170.708C99.9318 171.167 100.064 171.627 100.203 172.081V171.014H102.61V175.286H101.322C101.361 175.385 101.401 175.493 101.44 175.586H128.982V170.708H99.8144ZM105.533 175.286H103.125V171.014H105.533V175.286ZM108.443 175.286H106.036V171.014H108.443V175.286ZM111.36 175.286H108.946V171.014H111.354L111.36 175.286ZM114.273 175.286H111.866V171.014H114.273V175.286ZM117.19 175.286H114.782V171.014H117.19V175.286ZM120.106 175.286H117.699V171.014H120.106V175.286ZM123.02 175.286H120.612V171.014H123.02V175.286ZM125.933 175.286H123.525V171.014H125.933V175.286ZM128.847 175.286H126.439V171.014H128.847V175.286Z" fill="#587EEC"/>
<path opacity="0.1" d="M106.617 184.935C106.692 185.031 106.764 185.139 106.842 185.236H108.434V187.287C108.606 187.492 108.775 187.696 108.949 187.888V185.224H111.357V189.51H110.382C110.478 189.61 110.571 189.715 110.683 189.811H128.991V184.935H106.617ZM114.264 189.51H111.857V185.242H114.264V189.51ZM117.181 189.51H114.773V185.242H117.181V189.51ZM120.097 189.51H117.69V185.242H120.097V189.51ZM123.011 189.51H120.603V185.242H123.011V189.51ZM125.924 189.51H123.516V185.242H125.924V189.51ZM128.838 189.51H126.43V185.242H128.838V189.51Z" fill="#587EEC"/>
<path opacity="0.1" d="M122.686 199.16C122.96 199.316 123.239 199.46 123.522 199.616V199.466H125.93V200.818L126.442 201.055V199.466H128.85V202.065C128.896 202.088 128.944 202.106 128.994 202.119V199.16H122.686Z" fill="#587EEC"/>
<path opacity="0.1" d="M321.353 124.486H321.371H321.353ZM302.812 213.15H303.113H302.812ZM283.468 168.037C283.526 168.229 283.574 168.421 283.628 168.611C283.58 168.421 283.529 168.229 283.468 168.037ZM321.353 124.477H321.371H321.353ZM139.562 79.4932V80.7759H153.006V79.4932H139.562ZM302.812 213.15H303.113H302.812ZM283.468 168.037C283.526 168.229 283.574 168.421 283.628 168.611C283.58 168.421 283.529 168.229 283.468 168.037ZM321.353 124.477H321.371H321.353ZM302.812 213.141H303.113H302.812ZM283.468 168.037C283.526 168.229 283.574 168.421 283.628 168.611C283.58 168.421 283.529 168.229 283.468 168.037Z" fill="#587EEC"/>
<path d="M233.202 138.23C233.202 138.23 232.016 138.065 232.016 136.34C232.016 134.616 231.167 131.395 231.167 131.395C231.167 131.38 230.433 125.787 229.419 124.898C228.404 124.008 227.101 118.787 227.101 118.787C227.101 118.787 226.878 115.954 226.424 115.344C225.969 114.735 225.355 113.241 224.449 111.112C223.544 108.982 219.766 107.507 219.766 107.507C219.766 107.507 212.937 103.553 211.002 102.264C210.826 102.158 210.661 102.035 210.511 101.895C210.174 101.453 208.705 101.444 208.705 101.444C208.552 100.477 208.404 99.3654 208.356 98.359C208.356 98.2509 208.356 98.1427 208.341 98.0346C210.499 96.7614 212.125 94.7539 212.919 92.3808C212.955 92.2666 212.985 92.1465 213.018 92.0323C213.148 91.9898 213.267 91.9208 213.368 91.8298C213.469 91.7387 213.55 91.6276 213.605 91.5036C213.78 91.1161 213.783 90.6624 214 90.3019C214.252 89.8753 214.734 89.647 215.113 89.3256C216.07 88.5145 216.317 87.1476 216.272 85.9039C216.242 84.8975 216.079 83.8821 216.142 82.8817L216.161 82.6294C216.179 82.4792 216.2 82.329 216.227 82.1848C216.374 81.4397 216.696 80.7368 216.877 79.9978C217.057 79.2587 217.076 78.4266 216.654 77.7897C216.037 76.8554 214.752 76.6692 213.623 76.573C212.344 76.4649 211.2 76.6061 210.382 75.5456C209.999 74.9914 209.568 74.4717 209.094 73.9925C208.925 73.8363 207.288 72.8389 207.288 72.7728C205.69 72.0341 203.878 71.8954 202.186 72.3823C201.337 72.6286 200.537 73.0312 199.676 73.2325C197.819 73.6711 195.682 73.1964 194.105 74.2569C193.226 74.8577 192.699 75.813 192.206 76.7443C191.804 77.5113 191.397 78.2774 190.984 79.0424C190.319 80.3012 189.641 81.5809 189.361 82.9749C189.303 83.2782 189.266 83.5854 189.253 83.8941V83.9091C189.253 84.0203 189.253 84.1314 189.253 84.2426V84.3838C189.253 84.4889 189.253 84.5911 189.271 84.6842C189.289 84.7773 189.286 84.8074 189.295 84.8705C189.304 84.9335 189.319 85.0747 189.337 85.1709C189.355 85.267 189.392 85.4352 189.428 85.5674C189.443 85.6245 189.464 85.6786 189.482 85.7326C189.512 85.8348 189.548 85.9339 189.587 86.0331C189.608 86.0841 189.629 86.1382 189.653 86.1893C189.699 86.2944 189.753 86.3966 189.807 86.4897C189.831 86.5317 189.849 86.5708 189.873 86.6099C189.957 86.7496 190.05 86.884 190.15 87.0124C190.794 87.8145 191.742 88.3252 192.443 89.0762C192.443 89.1063 192.443 89.1363 192.443 89.1634C192.443 89.2475 192.443 89.3286 192.443 89.4127C192.481 91.0877 192.927 92.7282 193.745 94.1916C194.562 95.6549 195.725 96.8969 197.133 97.8093C197.133 97.9234 197.148 98.0406 197.154 98.1547C197.212 99.0465 197.201 99.9414 197.121 100.831C196.998 100.687 196.845 100.573 196.672 100.496C196.499 100.419 196.311 100.381 196.121 100.387C195.992 100.381 195.863 100.392 195.736 100.42L195.709 100.399V100.426C195.047 100.588 194.231 101.276 193.452 103.232C193.452 103.232 191.08 105.899 189.274 105.788C187.468 105.677 182.896 108.564 182.896 108.564C182.896 108.564 178.436 111.454 177.479 114.398C176.944 116.068 176.302 117.701 175.559 119.289L170.045 130.629L169.027 139.627C169.027 139.627 169.59 143.628 169.479 144.238C169.367 144.848 171.793 150.349 171.793 150.349C171.793 150.349 179.808 164.405 183.083 165.126L183.318 164.961C183.458 165.034 183.607 165.089 183.76 165.126L184.434 164.651C184.475 165.18 184.458 165.712 184.383 166.237C183.932 167.625 184.552 176.683 185.34 178.458C186.129 180.234 185.849 203.513 185.849 203.513L185.738 205.567C185.738 205.567 185.738 205.634 185.765 205.748L185.738 206.234L185.819 206.276C185.903 206.928 185.876 207.59 185.738 208.232C185.455 209.133 185.34 211.681 185.34 211.681C185.34 211.681 183.086 226.065 184.155 228.955C185.223 231.845 186.132 235.011 186.132 235.011C186.132 235.011 187.261 238.616 186.186 239.232C185.112 239.848 182.057 240.881 182.686 242.383C183.258 243.771 185.428 247.49 185.75 248.034L185.723 248.319L185.28 253.105C185.352 253.737 185.524 254.353 185.789 254.931C186.273 255.974 187.215 257.055 189.006 256.938C189.307 256.917 189.656 256.881 189.993 256.836C193.271 256.397 197.307 254.937 197.307 254.937C197.098 254.805 196.906 254.646 196.735 254.466C196.574 254.31 196.447 254.123 196.36 253.917C196.274 253.71 196.23 253.488 196.233 253.264C196.281 252.393 194.647 248.241 194.24 247.22C194.177 247.073 194.144 246.988 194.144 246.988C194.144 246.988 197.87 243.101 197.25 239.655C197.25 239.655 193.127 237.252 194.484 235.933C195.842 234.614 198.267 230.826 198.267 230.826C198.267 230.826 198.379 216.662 198.267 214.547C198.151 213.079 198.221 211.602 198.475 210.152C198.52 209.932 198.574 209.719 198.632 209.509C200.509 209.789 202.404 209.932 204.302 209.939C204.994 209.939 205.699 209.938 206.409 209.896C206.409 210.097 206.418 210.313 206.436 210.545C206.592 214.054 206.884 220.207 207.122 222.493C207.459 225.77 209.322 234.602 209.322 234.602C209.322 234.602 205.768 236.88 209.942 242.491C209.942 242.491 209.942 244.525 209.665 244.819C209.37 245.782 209.132 246.761 208.952 247.752C208.778 248.809 208.705 249.878 208.988 250.434C209.665 251.762 213.729 251.654 213.729 251.654L213.828 251.636C214.595 251.557 215.37 251.63 216.109 251.853C216.847 252.075 217.534 252.441 218.129 252.931C219.673 254.168 225.533 253.625 228.705 253.231C229.948 253.075 230.779 252.931 230.779 252.931C230.819 252.79 230.834 252.644 230.821 252.498C230.788 251.72 230.177 250.014 226.036 248.491C226.036 248.491 222.141 245.877 222.195 243.6H222.114H221.662C221.991 243.582 222.201 243.6 222.201 243.6C222.201 243.6 220.675 238.042 221.298 237.592C221.921 237.141 220.055 230.982 220.055 230.982C220.055 230.982 218.987 220.648 218.93 219.924C218.932 219.303 219.026 218.685 219.209 218.092L218.93 212.426C218.93 212.426 218.875 210.542 218.93 209.929C218.92 209.398 218.877 208.867 218.8 208.34C218.773 208.13 218.746 207.911 218.716 207.694C220.176 207.325 221.124 206.982 221.124 206.982L220.955 187.26C222.195 184.857 222.424 179.585 222.418 175.845C222.418 173.441 222.31 171.663 222.31 171.663L224.004 168.902C224.004 168.902 224.395 165.598 223.775 164.874C223.501 164.546 223.625 164.207 223.851 163.927C223.968 163.834 224.091 163.75 224.221 163.675C224.221 163.675 224.203 163.648 224.182 163.609C224.3 163.51 224.426 163.421 224.558 163.341C224.558 163.341 223.956 162.41 224.495 162.017C225 162.359 225.452 162.617 225.795 162.828C225.771 163.047 225.747 163.173 225.747 163.173L225.891 162.873C226.222 163.059 226.424 163.173 226.424 163.173C226.424 163.173 229.079 157.895 229.021 157.117C228.964 156.339 230.827 153.061 230.827 153.061C230.827 153.061 231.053 151.34 232.07 150.619C233.088 149.898 232.859 144.674 232.859 144.674C232.859 144.674 233.142 141.952 233.819 140.84C234.496 139.729 233.202 138.23 233.202 138.23ZM182.409 135.914L182.46 137.172C182.159 136.689 181.942 136.34 181.942 136.34L182.409 135.914Z" fill="url(#paint0_linear_6_373)"/>
<path d="M226.568 160.893L225.918 163.657C225.918 163.657 220.711 161.004 219.772 157.634C218.833 154.263 221.343 152.983 221.343 152.983L226.195 155.035L226.568 160.893Z" fill="white"/>
<path opacity="0.1" d="M226.568 160.893L225.918 163.657C225.918 163.657 220.711 161.004 219.772 157.634C218.833 154.263 221.343 152.983 221.343 152.983L226.195 155.035L226.568 160.893Z" fill="black"/>
<path d="M197.346 254.956C197.346 254.956 192.531 256.722 189.22 256.944C187.462 257.061 186.538 255.986 186.063 254.95C185.803 254.373 185.635 253.76 185.566 253.132L185.997 248.37L186.225 245.835L193.259 244.011L194.255 247.052L194.349 247.283C194.749 248.298 196.353 252.429 196.305 253.291C196.303 253.512 196.346 253.731 196.431 253.935C196.515 254.139 196.641 254.323 196.799 254.478C196.96 254.66 197.144 254.82 197.346 254.956Z" fill="white"/>
<path d="M230.24 252.534C230.252 252.679 230.238 252.824 230.198 252.964C230.198 252.964 219.899 254.679 217.792 252.964C217.198 252.463 216.506 252.091 215.759 251.873C215.013 251.655 214.229 251.594 213.458 251.696C213.458 251.696 209.473 251.804 208.808 250.495C208.531 249.945 208.603 248.878 208.775 247.827C208.95 246.842 209.183 245.868 209.473 244.91L209.632 244.784L210.58 244.024L221.681 243.696H221.765C221.711 245.961 225.533 248.56 225.533 248.56C229.593 250.062 230.192 251.759 230.24 252.534Z" fill="white"/>
<path opacity="0.1" d="M230.24 252.534C230.251 252.679 230.236 252.824 230.195 252.964C230.195 252.964 219.899 254.679 217.792 252.964C217.198 252.463 216.506 252.092 215.761 251.873C215.015 251.655 214.231 251.595 213.461 251.696C213.461 251.696 209.473 251.804 208.811 250.494C208.534 249.942 208.603 248.878 208.775 247.827C210.31 247.98 212.732 248.362 213.684 249.272C215.122 250.657 217.56 252.039 219.056 252.147C220.227 252.222 227.231 252.444 230.24 252.534Z" fill="black"/>
<path opacity="0.1" d="M197.346 254.956C197.346 254.956 192.531 256.722 189.22 256.944C187.462 257.061 186.538 255.986 186.066 254.947C187.291 255.358 188.991 255.791 189.885 255.394C190.945 254.926 194.701 254.622 196.808 254.493C196.968 254.668 197.149 254.823 197.346 254.956Z" fill="black"/>
<path d="M204.492 112.605C200.519 111.064 195.408 105.972 196.684 103.592C196.968 102.992 197.136 102.344 197.181 101.682C197.263 100.783 197.275 99.8788 197.217 98.978C197.127 97.5027 196.95 96.034 196.684 94.58C196.684 94.58 209.088 94.8593 208.365 96.6828C208.155 97.2176 208.121 98.1459 208.179 99.1853C208.236 100.225 208.386 101.399 208.543 102.394C208.759 103.758 208.976 104.797 208.976 104.797C208.976 104.797 208.218 105.857 207.772 105.915C207.327 105.972 210.192 114.801 204.492 112.605Z" fill="#CF6F80"/>
<path opacity="0.1" d="M194.34 247.283L194.246 247.385C190.538 242.909 186.054 248.488 186.054 248.488L185.988 248.37L186.216 245.835L193.25 244.011L194.246 247.052L194.34 247.283Z" fill="black"/>
<path opacity="0.1" d="M221.768 244.012C221.768 244.012 219.059 243.954 217.614 245.228C216.17 246.502 209.187 245.505 209.488 245.228C209.577 245.091 209.631 244.934 209.644 244.772L210.592 244.012L221.693 243.684C221.735 243.885 221.768 244.012 221.768 244.012Z" fill="black"/>
<path d="M198.954 208.86C198.752 209.358 198.599 209.874 198.496 210.401C198.245 211.845 198.175 213.314 198.289 214.775C198.4 216.878 198.289 230.971 198.289 230.971C198.289 230.971 195.908 234.729 194.581 236.054C193.253 237.378 197.289 239.758 197.289 239.758C197.891 243.182 194.243 247.052 194.243 247.052C190.535 242.576 186.051 248.157 186.051 248.157C186.051 248.157 183.613 243.951 183.005 242.449C182.397 240.947 185.386 239.908 186.436 239.298C187.486 238.688 186.385 235.092 186.385 235.092C186.385 235.092 185.497 231.941 184.444 229.066C183.39 226.191 185.605 211.879 185.605 211.879C185.605 211.879 185.72 209.338 185.994 208.452C186.132 207.812 186.159 207.154 186.075 206.505C186.057 206.286 186.036 206.102 186.021 205.979C186.006 205.856 185.994 205.799 185.994 205.799L186.036 205.727L187.541 202.927C187.541 202.927 199.676 207.097 198.954 208.86Z" fill="#587EEC"/>
<path d="M221.768 243.681C221.768 243.681 219.059 243.624 217.614 244.883C216.17 246.142 209.187 245.159 209.488 244.883C209.789 244.607 209.765 242.561 209.765 242.561C205.669 236.979 209.163 234.714 209.163 234.714C209.163 234.714 207.333 225.927 207.002 222.667C206.77 220.39 206.484 214.271 206.331 210.777C206.264 209.275 206.225 208.241 206.225 208.241L209.572 207.569L210.003 207.481L218.075 205.865C218.075 205.865 218.298 207.367 218.448 208.596C218.523 209.121 218.565 209.649 218.574 210.179C218.52 210.78 218.574 212.661 218.574 212.661L218.848 218.299C218.669 218.891 218.577 219.505 218.574 220.123C218.629 220.841 219.679 231.121 219.679 231.121C219.679 231.121 221.506 237.255 220.883 237.697C220.26 238.139 221.768 243.681 221.768 243.681Z" fill="#587EEC"/>
<path opacity="0.1" d="M208.365 96.6828C208.155 97.2176 208.122 98.1459 208.179 99.1853C206.517 100.184 204.607 100.694 202.668 100.658C200.729 100.622 198.84 100.041 197.217 98.981C197.128 97.5047 196.95 96.035 196.684 94.58C196.684 94.58 209.088 94.8533 208.365 96.6828Z" fill="black"/>
<path d="M213.16 90.0438C213.162 91.1263 212.992 92.2023 212.654 93.2311C211.9 95.5364 210.354 97.5014 208.289 98.7788C206.224 100.056 203.772 100.564 201.369 100.212C198.965 99.8598 196.763 98.671 195.152 96.8554C193.542 95.0398 192.626 92.7144 192.567 90.2901C192.567 90.206 192.567 90.1279 192.567 90.0438C192.544 88.6792 192.793 87.3236 193.3 86.0561C193.807 84.7886 194.562 83.6345 195.52 82.6613C196.479 81.688 197.622 80.915 198.883 80.3873C200.144 79.8596 201.498 79.5879 202.865 79.5879C204.232 79.5879 205.586 79.8596 206.847 80.3873C208.108 80.915 209.251 81.688 210.21 82.6613C211.168 83.6345 211.923 84.7886 212.43 86.0561C212.937 87.3236 213.186 88.6792 213.163 90.0438H213.16Z" fill="#CF6F80"/>
<path opacity="0.1" d="M204.492 112.605C200.519 111.064 195.408 105.972 196.684 103.592C196.968 102.992 197.136 102.344 197.181 101.682L202.62 106.143L205.984 108.898L208.543 102.397C208.759 103.761 208.976 104.8 208.976 104.8C208.976 104.8 208.218 105.861 207.772 105.918C207.327 105.975 210.192 114.801 204.492 112.605Z" fill="black"/>
<path d="M218.556 132.321L214.015 208.476L208.091 208.863L192.754 164.705L195.27 112.28L195.799 101.204L202.62 106.795L205.988 109.55L208.621 102.859L213.518 107.119L218.556 132.321Z" fill="#587EEC"/>
<path opacity="0.1" d="M198.954 208.86C198.752 209.358 198.599 209.874 198.496 210.401C194.186 209.737 190 208.432 186.078 206.529L185.997 206.487L186.024 206.003L186.039 205.751L187.544 202.951C187.544 202.951 199.676 207.097 198.954 208.86Z" fill="black"/>
<path opacity="0.1" d="M209.641 210.413C208.54 210.6 207.428 210.727 206.313 210.792C206.246 209.29 206.207 208.256 206.207 208.256L209.554 207.583L209.641 210.413Z" fill="black"/>
<path opacity="0.1" d="M218.43 208.611C216.29 209.167 212.985 209.792 210.027 209.401L209.984 207.496L218.057 205.88C218.057 205.88 218.279 207.367 218.43 208.611Z" fill="black"/>
<path opacity="0.1" d="M209.973 209.749C197.632 211.852 186.331 205.823 186.331 205.823L186.439 203.78C186.439 203.78 186.719 180.621 185.942 178.846C185.166 177.07 184.561 168.067 185 166.685C185.44 165.303 183.396 144.581 183.396 144.581L183.065 136.169L170.948 131.269L176.365 119.998C177.097 118.418 177.726 116.792 178.249 115.131C179.191 112.205 183.565 109.33 183.565 109.33C183.565 109.33 188.049 106.458 189.822 106.566C191.595 106.675 193.918 104.025 193.918 104.025C195.634 99.66 197.187 101.637 197.187 101.637C197.187 101.844 197.187 101.637 197.103 102.283C196.501 107.074 206.836 122.215 206.984 122.482L207.968 146.413L208.964 176.698L209.973 209.749Z" fill="black"/>
<path d="M209.641 209.749C197.301 211.852 185.997 205.823 185.997 205.823L186.108 203.78C186.108 203.78 186.388 180.621 185.608 178.846C184.829 177.07 184.227 168.067 184.669 166.685C185.112 165.303 183.065 144.581 183.065 144.581L182.731 136.169L170.607 131.251L176.025 119.98C176.755 118.399 177.385 116.774 177.909 115.113C178.848 112.187 183.224 109.312 183.224 109.312C183.224 109.312 187.709 106.44 189.479 106.549C191.249 106.657 193.575 104.007 193.575 104.007C195.294 99.642 197.187 101.619 197.187 101.619C197.187 101.826 197.006 101.919 197.103 102.265C198.427 106.912 206.505 122.197 206.653 122.464L207.649 146.395L208.645 176.68L209.641 209.749Z" fill="white"/>
<path opacity="0.1" d="M206.316 123.146C204.988 122.594 197.957 114.582 197.957 114.582V112.758C197.702 112.157 196.182 112.524 194.948 112.944L195.477 101.868L196.079 102.367C197.398 107.011 206.162 122.879 206.316 123.146Z" fill="black"/>
<path d="M206.65 122.482C205.319 121.93 198.289 113.918 198.289 113.918V112.094C198.033 111.493 196.513 111.86 195.279 112.28L195.811 101.204L196.413 101.703C197.735 106.347 206.502 122.218 206.65 122.482Z" fill="white"/>
<path opacity="0.1" d="M186.331 162.44C186.496 162.44 194.911 161.557 194.911 161.557C194.911 161.557 200.007 171.558 199.673 173.991C199.339 176.424 198.734 178.578 196.684 178.197C194.635 177.815 185.653 178.497 185.653 178.497L186.331 162.44Z" fill="black"/>
<path d="M185.997 161.777C186.162 161.777 194.577 160.893 194.577 160.893C194.577 160.893 199.67 170.897 199.339 173.327C199.008 175.758 198.397 177.915 196.35 177.533C194.304 177.152 185.319 177.834 185.319 177.834L185.997 161.777Z" fill="white"/>
<path d="M192.338 157.081C192.338 157.081 200.061 161.224 200.227 162.488C200.392 163.753 196.296 161.936 195.411 161.716C194.829 161.576 194.236 161.484 193.638 161.44L187.736 161.599L192.338 157.081Z" fill="#CF6F80"/>
<path opacity="0.1" d="M204.161 123.663C204.609 123.663 204.973 123.3 204.973 122.852C204.973 122.404 204.609 122.041 204.161 122.041C203.712 122.041 203.348 122.404 203.348 122.852C203.348 123.3 203.712 123.663 204.161 123.663Z" fill="black"/>
<path d="M204.161 123.333C204.609 123.333 204.973 122.97 204.973 122.522C204.973 122.074 204.609 121.71 204.161 121.71C203.712 121.71 203.348 122.074 203.348 122.522C203.348 122.97 203.712 123.333 204.161 123.333Z" fill="#3F3D56"/>
<path opacity="0.1" d="M205.656 158.775C206.105 158.775 206.469 158.412 206.469 157.964C206.469 157.516 206.105 157.153 205.656 157.153C205.208 157.153 204.844 157.516 204.844 157.964C204.844 158.412 205.208 158.775 205.656 158.775Z" fill="black"/>
<path d="M205.656 158.442C206.105 158.442 206.469 158.079 206.469 157.631C206.469 157.183 206.105 156.82 205.656 156.82C205.208 156.82 204.844 157.183 204.844 157.631C204.844 158.079 205.208 158.442 205.656 158.442Z" fill="#3F3D56"/>
<path opacity="0.1" d="M204.97 141.219C205.419 141.219 205.783 140.856 205.783 140.408C205.783 139.96 205.419 139.597 204.97 139.597C204.521 139.597 204.158 139.96 204.158 140.408C204.158 140.856 204.521 141.219 204.97 141.219Z" fill="black"/>
<path d="M204.97 140.889C205.419 140.889 205.783 140.526 205.783 140.078C205.783 139.63 205.419 139.267 204.97 139.267C204.521 139.267 204.158 139.63 204.158 140.078C204.158 140.526 204.521 140.889 204.97 140.889Z" fill="#3F3D56"/>
<path d="M223.703 161.272C223.703 161.272 224.257 162.101 223.703 162.488C223.149 162.876 223.757 163.813 223.757 163.813C223.757 163.813 222.376 164.621 222.984 165.348C223.592 166.075 223.207 169.359 223.207 169.359L221.545 172.105C221.545 172.105 221.644 173.874 221.65 176.265C221.65 179.996 221.431 185.242 220.215 187.633L220.383 207.253C220.383 207.253 214.565 209.374 209.696 208.728L208.973 177.245C208.973 177.245 210.027 159.391 210.415 155.966C210.642 154.188 210.735 152.396 210.692 150.604C210.692 150.604 210.526 145.245 209.97 142.757C209.97 142.757 209.368 131.981 209.307 128.998C209.28 127.571 209.356 123.408 209.44 119.448C209.533 115.119 209.638 111.037 209.638 111.037L208.54 102.361C208.54 102.361 209.638 102.249 209.97 102.691C210.118 102.829 210.279 102.953 210.451 103.061C212.347 104.34 219.047 108.276 219.047 108.276C219.047 108.276 222.755 109.748 223.643 111.857C224.531 113.966 225.148 115.462 225.578 116.062C226.009 116.663 226.243 119.487 226.243 119.487C226.243 119.487 227.52 124.684 228.516 125.565C229.512 126.445 230.24 132.044 230.24 132.044L221.437 138.954C221.437 138.954 220.663 150.448 220.498 150.892C220.332 151.337 223.703 161.272 223.703 161.272Z" fill="white"/>
<path d="M224.037 161.272C224.037 161.272 224.588 162.101 224.037 162.489C223.486 162.876 224.088 163.813 224.088 163.813C224.088 163.813 222.716 164.63 223.318 165.357C223.92 166.084 223.541 169.368 223.541 169.368L221.879 172.114C221.879 172.114 221.978 173.883 221.988 176.275C221.988 180.006 221.768 185.251 220.552 187.642L220.717 207.262C220.717 207.262 214.89 209.383 210.027 208.737L209.307 177.254C209.307 177.254 210.361 159.4 210.749 155.976C210.976 154.198 211.068 152.405 211.023 150.613C211.023 150.613 210.857 145.254 210.304 142.766C210.304 142.766 209.702 131.991 209.638 129.007C209.611 127.581 209.69 123.417 209.771 119.457C209.864 115.128 209.969 111.046 209.969 111.046L208.519 102.253C208.519 102.253 209.969 102.253 210.304 102.7C210.45 102.84 210.612 102.964 210.785 103.07C212.681 104.35 219.384 108.285 219.384 108.285C219.384 108.285 223.089 109.757 223.977 111.866C224.865 113.975 225.482 115.471 225.915 116.072C226.349 116.673 226.577 119.496 226.577 119.496C226.577 119.496 227.854 124.694 228.85 125.574C229.846 126.454 230.565 132.042 230.565 132.042L221.762 138.951C221.762 138.951 220.988 150.445 220.82 150.89C220.651 151.334 224.037 161.272 224.037 161.272Z" fill="white"/>
<path opacity="0.1" d="M213.494 113.596L214.289 115.909L210.105 120.115C210.198 115.789 210.304 111.703 210.304 111.703L208.853 102.91C208.853 102.91 210.304 102.91 210.638 103.358C210.784 103.498 210.946 103.62 211.119 103.725L214.677 113.969L213.494 113.596Z" fill="black"/>
<path d="M213.16 112.932L213.957 115.245L209.774 119.451C209.867 115.122 209.972 111.04 209.972 111.04L208.519 102.247C208.519 102.247 209.972 102.247 210.304 102.694C210.451 102.833 210.613 102.957 210.785 103.064L214.346 113.305L213.16 112.932Z" fill="white"/>
<path opacity="0.1" d="M213.16 90.0438C213.162 91.1263 212.992 92.2023 212.654 93.2311C212.597 93.24 212.539 93.2374 212.483 93.2235C212.428 93.2095 212.375 93.1846 212.329 93.15C212.251 90.4463 210.918 87.9078 209.277 85.7479C208.817 85.0957 208.258 84.5182 207.622 84.0355C206.978 83.5531 206.178 83.3271 205.377 83.4016C204.474 83.5248 203.676 84.1376 202.764 84.2157C201.56 84.3149 200.483 83.4827 199.288 83.4407C198.802 83.4453 198.323 83.5532 197.882 83.7573C197.442 83.9615 197.05 84.257 196.732 84.6243C196.105 85.3655 195.638 86.229 195.363 87.1598C194.89 88.5713 194.632 90.0458 194.599 91.5338C194.583 92.375 194.502 93.4294 193.72 93.7358C193.779 93.1172 193.708 92.4931 193.513 91.9031C193.318 91.3131 193.002 90.7699 192.585 90.3081L192.567 90.2901C192.567 90.206 192.567 90.1279 192.567 90.0438C192.544 88.6792 192.793 87.3236 193.3 86.0561C193.807 84.7886 194.562 83.6345 195.52 82.6613C196.479 81.688 197.622 80.915 198.883 80.3873C200.144 79.8596 201.498 79.5879 202.865 79.5879C204.232 79.5879 205.586 79.8596 206.847 80.3873C208.108 80.915 209.251 81.688 210.21 82.6613C211.168 83.6345 211.923 84.7886 212.43 86.0561C212.937 87.3236 213.186 88.6792 213.163 90.0438H213.16Z" fill="black"/>
<path d="M207.128 73.7224C205.564 72.9881 203.785 72.8492 202.126 73.3319C201.292 73.5782 200.507 73.9777 199.661 74.179C197.855 74.6146 195.748 74.143 194.198 75.1974C193.337 75.7982 192.82 76.7476 192.338 77.6698L191.134 79.959C190.478 81.2117 189.816 82.4854 189.542 83.8643C189.268 85.2432 189.434 86.7874 190.31 87.8959C190.948 88.704 191.89 89.2117 192.582 89.9717C192.997 90.434 193.311 90.9769 193.506 91.5662C193.701 92.1555 193.771 92.7786 193.714 93.3965C194.499 93.096 194.574 92.0386 194.592 91.1974C194.626 89.7094 194.884 88.2349 195.357 86.8234C195.632 85.8923 196.098 85.0287 196.726 84.2879C197.044 83.9209 197.436 83.6256 197.876 83.4215C198.317 83.2174 198.796 83.1093 199.282 83.1043C200.486 83.1464 201.566 83.9755 202.758 83.8764C203.661 83.8013 204.462 83.1854 205.37 83.0652C206.172 82.9895 206.973 83.2156 207.616 83.6991C208.252 84.181 208.81 84.7587 209.268 85.4115C210.912 87.5714 212.245 90.1039 212.323 92.8137C212.663 93.063 213.154 92.7385 213.322 92.354C213.491 91.9695 213.497 91.5189 213.711 91.1524C213.957 90.7288 214.43 90.5035 214.8 90.185C215.739 89.3769 215.974 88.0161 215.938 86.7814C215.902 85.5467 215.661 84.2939 215.896 83.0803C216.037 82.3352 216.356 81.6383 216.531 80.9023C216.705 80.1663 216.726 79.3401 216.314 78.7062C215.712 77.775 214.445 77.5917 213.34 77.5046C212.085 77.3964 210.963 77.5346 210.162 76.4802C209.786 75.9299 209.363 75.4133 208.898 74.9361C208.738 74.7798 207.128 73.7885 207.128 73.7224Z" fill="#512E4E"/>
<path opacity="0.1" d="M174.415 137.073L171.27 131.269L170.273 140.225C170.273 140.225 170.827 144.202 170.716 144.812C170.605 145.422 172.985 150.889 172.985 150.889C172.985 150.889 180.85 164.871 184.061 165.592L194.912 157.853L192.034 154.206C192.034 154.206 191.038 153.818 190.788 154.206C190.788 154.206 185.446 145.031 184.892 144.367C184.338 143.703 184.447 142.379 184.447 142.379C184.447 142.379 183.616 141.495 183.893 140.666C184.17 139.837 182.289 136.962 182.289 136.962L184.004 135.361L174.415 137.073Z" fill="black"/>
<path d="M171.435 130.609L170.604 131.27L169.608 140.225C169.608 140.225 170.162 144.202 170.051 144.812C169.939 145.422 172.323 150.89 172.323 150.89C172.323 150.89 180.185 164.871 183.396 165.592L194.249 157.853L191.369 154.206C191.369 154.206 190.373 153.819 190.123 154.206C190.123 154.206 184.781 145.031 184.227 144.368C183.673 143.704 183.784 142.379 183.784 142.379C183.784 142.379 182.954 141.496 183.231 140.666C183.507 139.837 181.623 136.962 181.623 136.962L183.339 135.361L171.435 130.609Z" fill="white"/>
<path opacity="0.1" d="M222.984 165.691C223.586 166.421 223.206 169.698 223.206 169.698L221.545 172.444C221.545 172.444 221.644 174.217 221.65 176.605L218.857 177.476C218.605 177.555 218.337 177.572 218.077 177.526C217.816 177.481 217.571 177.374 217.36 177.214C217.149 177.055 216.98 176.847 216.866 176.609C216.752 176.371 216.697 176.109 216.705 175.845L217.187 160.34L223.703 162.828C223.149 163.212 223.757 164.156 223.757 164.156C223.757 164.156 222.376 164.961 222.984 165.691Z" fill="black"/>
<path d="M223.318 165.357C223.92 166.087 223.541 169.368 223.541 169.368L221.879 172.114C221.879 172.114 221.979 173.883 221.988 176.274L219.143 177.161C218.896 177.237 218.634 177.254 218.379 177.209C218.124 177.164 217.884 177.059 217.678 176.903C217.471 176.747 217.306 176.543 217.194 176.31C217.083 176.077 217.029 175.821 217.036 175.562L217.521 160.01L224.04 162.497C223.483 162.882 224.091 163.822 224.091 163.822C224.091 163.822 222.716 164.63 223.318 165.357Z" fill="white"/>
<path d="M225.476 157.967C225.476 157.967 225.033 160.788 223.926 160.953C222.818 161.119 222.322 165.517 221.217 165.36C220.112 165.204 220.844 161.272 220.883 160.509C220.922 159.746 219.679 156.585 220.609 155.867C221.539 155.149 224.483 155.867 224.483 155.867L225.476 157.967Z" fill="#CF6F80"/>
<path opacity="0.1" d="M227.833 136.244L229.921 132.038C229.921 132.038 230.752 135.244 230.752 136.956C230.752 138.669 231.914 138.837 231.914 138.837C231.914 138.837 233.187 140.339 232.516 141.432C231.845 142.526 231.574 145.248 231.574 145.248C231.574 145.248 231.793 150.442 230.797 151.16C229.801 151.878 229.593 153.593 229.593 153.593C229.593 153.593 227.763 156.853 227.821 157.628C227.878 158.403 225.274 163.651 225.274 163.651C225.274 163.651 226.547 157.129 219.128 154.311C219.128 154.311 219.071 152.097 219.625 151.49C220.179 150.883 221.042 150.607 220.501 147.54C219.959 144.473 220.344 140.808 220.344 140.072C220.344 139.335 222.006 134.745 222.006 134.745L227.833 136.244Z" fill="black"/>
<path d="M228.736 131.438L230.559 132.038C230.559 132.038 231.393 135.244 231.393 136.956C231.393 138.669 232.555 138.837 232.555 138.837C232.555 138.837 233.828 140.339 233.157 141.432C232.486 142.526 232.218 145.248 232.218 145.248C232.218 145.248 232.438 150.442 231.441 151.16C230.445 151.878 230.222 153.593 230.222 153.593C230.222 153.593 228.395 156.853 228.453 157.628C228.51 158.403 225.903 163.651 225.903 163.651C225.903 163.651 227.179 157.129 219.757 154.311C219.757 154.311 219.703 152.097 220.257 151.49C220.811 150.883 221.675 150.607 221.133 147.54C220.591 144.473 220.976 140.808 220.976 140.071C220.976 139.335 222.638 134.745 222.638 134.745L228.736 131.438Z" fill="white"/>
<path opacity="0.1" d="M188.45 240.449C188.45 240.449 191.357 238.625 193.265 239.95C195.173 241.275 188.45 240.449 188.45 240.449Z" fill="black"/>
<path opacity="0.1" d="M211.041 234.81C211.041 234.81 213.614 234.479 215.775 236.802C217.936 239.124 211.041 234.81 211.041 234.81Z" fill="black"/>
<g opacity="0.1">
<path opacity="0.1" d="M214.806 89.5271C214.436 89.8455 213.96 90.0738 213.714 90.4974C213.503 90.8609 213.497 91.3085 213.328 91.6991C213.16 92.0896 212.669 92.408 212.329 92.1617C212.251 89.458 210.915 86.9195 209.274 84.7565C208.816 84.1037 208.258 83.5261 207.622 83.0442C206.978 82.5608 206.176 82.3347 205.374 82.4103C204.471 82.5335 203.676 83.1463 202.764 83.2214C201.56 83.3235 200.48 82.4914 199.285 82.4493C198.799 82.4542 198.32 82.5625 197.88 82.7672C197.44 82.9718 197.049 83.2681 196.732 83.636C196.104 84.3757 195.638 85.2383 195.363 86.1685C194.89 87.58 194.632 89.0545 194.598 90.5425C194.58 91.3806 194.502 92.4261 193.726 92.7385C193.744 92.9604 193.744 93.1835 193.726 93.4054C194.508 93.105 194.586 92.0475 194.605 91.2064C194.638 89.7184 194.896 88.2438 195.369 86.8324C195.644 85.9013 196.11 85.0377 196.738 84.2969C197.055 83.93 197.447 83.6346 197.887 83.4305C198.327 83.2264 198.805 83.1183 199.291 83.1133C200.495 83.1553 201.578 83.9844 202.77 83.8853C203.673 83.8102 204.474 83.1944 205.38 83.0742C206.182 82.9986 206.984 83.2247 207.628 83.7081C208.264 84.19 208.822 84.7677 209.28 85.4204C210.921 87.5804 212.257 90.1129 212.335 92.8226C212.675 93.0719 213.166 92.7475 213.334 92.363C213.503 91.9784 213.509 91.5278 213.72 91.1613C213.966 90.7377 214.442 90.5124 214.812 90.194C215.751 89.3859 215.986 88.025 215.95 86.7903C215.95 86.7513 215.95 86.7122 215.95 86.6762C215.893 87.7456 215.607 88.8361 214.806 89.5271Z" fill="black"/>
<path opacity="0.1" d="M192.588 89.3137C191.896 88.5537 190.951 88.046 190.316 87.2409C189.781 86.5282 189.475 85.6702 189.44 84.7805C189.345 85.8923 189.656 87.0008 190.316 87.9018C190.951 88.7099 191.896 89.2176 192.588 89.9777C193.253 90.7211 193.652 91.6635 193.723 92.6573C193.769 92.0525 193.692 91.4446 193.497 90.87C193.302 90.2955 192.993 89.7661 192.588 89.3137Z" fill="black"/>
<path opacity="0.1" d="M216.537 80.2442C216.359 80.9802 216.043 81.6802 215.899 82.4222C215.813 82.9181 215.782 83.4217 215.805 83.9243C215.815 83.638 215.847 83.3528 215.899 83.0711C216.043 82.3261 216.359 81.6291 216.537 80.8931C216.64 80.4872 216.674 80.0666 216.636 79.6494C216.617 79.8498 216.584 80.0486 216.537 80.2442Z" fill="black"/>
</g>
<path opacity="0.1" d="M134.219 252.663C150.416 252.663 163.547 250.559 163.547 247.962C163.547 245.365 150.416 243.26 134.219 243.26C118.022 243.26 104.892 245.365 104.892 247.962C104.892 250.559 118.022 252.663 134.219 252.663Z" fill="#587EEC"/>
<path d="M135.164 157.898H133.277V200.308H135.164V157.898Z" fill="#535461"/>
<path d="M147.023 200.178L146.905 202.089L146.737 204.793L146.668 205.916L146.502 208.62L146.43 209.744L146.261 212.447L144.359 243.11C144.277 244.43 143.693 245.668 142.728 246.573C141.763 247.479 140.489 247.983 139.164 247.983H129.274C127.95 247.983 126.676 247.478 125.711 246.573C124.747 245.668 124.164 244.429 124.082 243.11L122.189 212.426L122.021 209.723L121.951 208.599L121.783 205.895L121.714 204.772L121.545 202.068L121.425 200.157C121.404 199.79 121.458 199.422 121.585 199.076C121.712 198.73 121.908 198.413 122.162 198.146C122.415 197.878 122.721 197.665 123.06 197.52C123.399 197.375 123.764 197.3 124.133 197.3H144.362C144.73 197.304 145.093 197.382 145.429 197.531C145.765 197.679 146.067 197.895 146.317 198.165C146.566 198.434 146.757 198.752 146.879 199.099C147 199.445 147.049 199.812 147.023 200.178Z" fill="#3F3D56"/>
<path d="M146.905 202.089L146.737 204.784H121.702L121.533 202.089H146.905Z" fill="#9D9CB5"/>
<path d="M146.668 205.907L146.502 208.605H121.939L121.771 205.907H146.668Z" fill="#9D9CB5"/>
<path d="M146.43 209.731L146.264 212.426H122.177L122.009 209.731H146.43Z" fill="#9D9CB5"/>
<path d="M118.653 173.793C129.641 181.73 134.228 194.143 134.228 194.143C134.228 194.143 120.985 193.689 109.993 185.752C99.0017 177.815 94.4238 165.405 94.4238 165.405C94.4238 165.405 107.661 165.856 118.653 173.793Z" fill="#587EEC"/>
<path d="M94.4149 165.405C94.4149 165.405 108.164 173.021 112.573 179.327C116.982 185.632 134.228 194.143 134.228 194.143" stroke="#535461" stroke-width="2" stroke-miterlimit="10"/>
<path d="M125.747 157.805C131.727 162.122 134.228 168.878 134.228 168.878C134.228 168.878 127.02 168.632 121.036 164.315C115.053 159.998 112.558 153.239 112.558 153.239C112.558 153.239 119.763 153.485 125.747 157.805Z" fill="#587EEC"/>
<path d="M112.558 153.239C112.558 153.239 120.04 157.384 122.439 160.815C124.838 164.246 134.228 168.878 134.228 168.878" stroke="#535461" stroke-width="2" stroke-miterlimit="10"/>
<path d="M142.912 168.536C136.04 176.073 134.586 185.924 134.586 185.924C134.586 185.924 144.275 183.55 151.14 176.01C158.006 168.47 159.465 158.622 159.465 158.622C159.465 158.622 149.783 160.998 142.912 168.536Z" fill="#587EEC"/>
<path d="M159.471 158.625C159.471 158.625 150.52 166.352 148.245 171.675C145.969 176.998 134.586 185.924 134.586 185.924" stroke="#535461" stroke-width="2" stroke-miterlimit="10"/>
<path d="M395.149 165.883C395.149 165.883 390.18 141.207 392.082 138.137C392.082 138.137 392.152 135.283 392.037 131.645C392.037 131.507 392.037 131.369 392.037 131.227C392.372 131.45 392.721 131.651 393.082 131.828C394.834 132.727 396.846 132.986 398.77 132.561L397.265 130.888C396.904 130.488 396.528 130.056 396.45 129.527C396.371 128.998 396.588 128.527 396.775 128.055C398.204 124.45 398.28 119.917 395.526 117.165C393.199 114.852 392.633 111.866 390.108 109.754C388.263 108.207 387.249 105.939 386.292 103.746C385.482 101.892 384.666 100.023 384.203 98.0587C383.842 96.5236 383.697 94.9344 383.201 93.4354C382.704 91.9363 381.774 90.4793 380.32 89.8094C379.803 89.5721 379.228 89.4369 378.755 89.1214C378.135 88.7039 377.762 88.0249 377.313 87.4301C375.035 84.426 367.405 86.1954 363.793 87.4151C362.812 87.7222 361.902 88.2251 361.121 88.8931L361.154 88.8391C361.181 88.794 361.214 88.7489 361.244 88.7039C360.849 89.0229 360.507 89.4033 360.233 89.8304C359.706 90.6626 359.487 91.6329 359.047 92.5341C358.517 93.6006 355.571 96.5777 356.838 97.7764C356.927 97.8569 357.028 97.9218 357.139 97.9686C357.615 98.1662 358.138 98.2185 358.644 98.1188L358.59 98.248C358.157 99.3056 357.935 100.437 357.936 101.58C357.936 106.515 362.015 110.517 367.05 110.517C367.997 110.518 368.938 110.373 369.84 110.087C369.861 110.201 369.879 110.316 369.9 110.43C369.9 110.475 369.915 110.52 369.921 110.565L369.762 110.787C369.754 110.774 369.745 110.76 369.735 110.748L365.009 117.339C364.287 117.847 360.128 120.851 359.893 123.104C359.646 125.571 359.399 128.458 359.399 128.458L359.366 129.076C359.16 129.249 358.918 129.374 358.658 129.444C358.398 129.514 358.127 129.527 357.861 129.482C356.386 129.242 356.386 134.889 356.386 134.889C356.386 134.889 355.405 135.791 354.731 135.01C354.057 134.229 352.275 136.875 352.275 136.875L341.109 137.356L340.853 137.371L340.251 135.511C340.186 135.315 340.046 135.152 339.862 135.058C339.678 134.965 339.464 134.947 339.267 135.01C339.22 135.025 339.175 135.044 339.131 135.067L339.089 135.091L339.011 135.145L338.972 135.181C338.95 135.2 338.93 135.221 338.912 135.244L338.876 135.286L338.857 135.304C338.788 135.4 338.742 135.511 338.723 135.628C338.704 135.744 338.713 135.864 338.749 135.977L339.267 137.572C337.112 138.005 334.909 139.224 336.705 142.583L327.598 140.904L330.544 143.373L345.756 146.506C345.554 146.867 345.687 147.39 346.316 148.126C349.024 151.301 353.961 152.163 355.947 152.385C356.472 153.557 357.127 154.665 357.9 155.69L357.729 158.853C357.729 158.853 352.699 182.965 351.778 184.187C352.243 183.661 352.669 183.102 353.052 182.514C351.592 187.468 349.551 194.248 349.015 195.263C348.155 196.886 347.357 203.45 348.338 203.87C348.639 203.999 349.5 203.936 350.728 203.843V204.387L350.674 224.992C350.674 224.992 350.921 237.631 350.243 238.835C349.566 240.04 349.386 242.567 349.386 242.567C349.386 242.567 346.677 247.55 344.531 249.554C344.516 249.57 344.5 249.584 344.483 249.596L344.417 249.128C344.417 249.128 341.837 252.378 336.131 252.195C336.131 252.195 332.696 254.424 337.789 254.544C342.882 254.664 349.386 254.364 349.386 254.364C349.386 254.364 353.927 247.454 357.732 248.356V253.592H358.897V248.271C359.437 247.916 359.899 247.456 360.256 246.917C360.612 246.379 360.855 245.773 360.97 245.138C361.07 244.483 360.997 243.814 360.758 243.196C360.52 242.578 360.124 242.033 359.61 241.614C359.379 241.406 359.194 241.152 359.066 240.869C358.938 240.585 358.87 240.279 358.866 239.968L358.824 240.004C358.824 239.899 358.797 239.791 358.785 239.68C358.451 236.976 358.033 231.397 359.511 227.27C361.536 221.61 362.15 213.727 360.675 209.034C360.2 207.534 359.809 206.009 359.505 204.465C359.468 204.27 359.435 204.084 359.405 203.909C360.413 204.046 361.412 204.246 362.394 204.51C365.81 205.45 373.283 205.625 379.664 205.574C379.679 205.748 379.697 205.931 379.718 206.114C379.832 207.388 380.07 208.648 380.429 209.876C381.229 212.279 381.596 222.874 381.596 222.874C381.596 222.874 382.629 231.586 382.066 235.131C381.765 237.102 381.464 239.082 381.292 241.07V241.11C381.292 241.11 379.601 245.916 378.364 248.527C378.334 248.593 378.301 248.659 378.271 248.722C377.941 248.752 377.616 248.824 377.304 248.935C377.304 248.935 375.646 252.24 373.994 252.787C372.341 253.333 372.889 255.133 376.63 254.472C380.371 253.811 386.021 253.27 386.021 253.27L386.265 249.9L387.414 248.464L387.113 251.825L388.338 251.585L388.176 247.496L390.057 245.147C390.057 245.147 392.329 243.128 388.952 239.157V239.244C388.916 239.187 388.883 239.127 388.844 239.07V239.052C388.284 238.187 387.839 236.573 388.654 233.71C390.129 228.537 390.987 223.842 390.987 223.842C390.987 223.842 394.28 211.263 390.322 205.312H390.496C390.091 204.475 389.804 203.585 389.645 202.669C389.624 202.561 389.606 202.449 389.59 202.335C392.519 202.167 395.393 201.638 397.738 200.497C397.729 200.485 396.317 170.636 395.149 165.883ZM357.97 145.064V145.124L357.368 145.155L357.97 145.064ZM355.905 145.35C355.806 145.372 355.713 145.416 355.634 145.479C355.375 145.844 355.213 146.269 355.161 146.714L354.222 146.503C354.222 146.503 353.563 146.362 352.615 146.203L352.167 145.752C353.401 145.65 354.683 145.5 355.905 145.35Z" fill="url(#paint1_linear_6_373)"/>
<path d="M386.975 247.538L386.617 251.795L387.818 251.555L387.637 246.938L386.975 247.538Z" fill="#1D2366"/>
<path d="M359.577 227.326C358.129 231.442 358.538 236.997 358.863 239.694C358.984 240.692 359.095 241.299 359.095 241.299C359.095 241.299 356.931 246.219 356.75 246.406C356.57 246.592 350.382 250.362 350.382 250.362L346.057 252.883C346.057 252.883 341.669 250.963 343.772 250.302C344.202 250.13 344.589 249.866 344.907 249.53C347.014 247.532 349.659 242.566 349.659 242.566C349.659 242.566 349.84 240.046 350.502 238.847C351.164 237.649 350.924 225.052 350.924 225.052L350.975 204.519V201.842L359.206 201.902C359.258 202.811 359.377 203.715 359.562 204.606C359.857 206.145 360.24 207.665 360.708 209.16C362.159 213.844 361.557 221.688 359.577 227.326Z" fill="#FFB0B1"/>
<path opacity="0.1" d="M359.095 241.299C359.095 241.299 356.931 246.22 356.751 246.406C356.57 246.592 350.382 250.362 350.382 250.362L346.057 252.883C346.057 252.883 341.669 250.963 343.772 250.302C344.202 250.13 344.589 249.867 344.907 249.53L345.094 250.843L346.535 250.783L358.875 239.701C358.984 240.692 359.095 241.299 359.095 241.299Z" fill="black"/>
<path d="M358.945 239.98L346.535 251.137L345.094 251.197L344.793 249.095C344.793 249.095 342.271 252.333 336.666 252.153C336.666 252.153 333.301 254.373 338.289 254.493C343.276 254.613 349.644 254.313 349.644 254.313C349.644 254.313 354.093 247.403 357.816 248.304V253.523H358.96V248.256C359.492 247.899 359.945 247.438 360.294 246.901C360.643 246.364 360.879 245.762 360.988 245.132C361.087 244.483 361.017 243.819 360.785 243.204C360.552 242.59 360.165 242.045 359.661 241.623C359.436 241.412 359.256 241.158 359.133 240.875C359.01 240.593 358.946 240.288 358.945 239.98Z" fill="#1D2366"/>
<path d="M388.119 233.743C387.318 236.597 387.754 238.205 388.302 239.067V239.085C389.005 240.149 389.493 241.34 389.741 242.591L389.789 242.861L384.143 251.077L381.079 252.279C381.079 252.279 376.152 250.6 377.052 250.119C377.277 250.002 377.629 249.377 378.033 248.515C379.237 245.916 380.898 241.122 380.898 241.122V241.083C381.073 239.103 381.35 237.129 381.657 235.164C382.207 231.629 381.196 222.95 381.196 222.95C381.196 222.95 380.835 212.396 380.052 209.996C379.699 208.775 379.464 207.524 379.351 206.259C379.189 204.757 379.152 203.519 379.152 203.519C379.152 203.519 382.397 199.013 388.344 203.879C388.82 204.267 389.238 204.721 389.587 205.225C393.696 211.059 390.388 223.911 390.388 223.911C390.388 223.911 389.56 228.585 388.119 233.743Z" fill="#FFB0B1"/>
<path opacity="0.1" d="M389.798 242.861L384.152 251.077L381.088 252.279C381.088 252.279 376.161 250.6 377.061 250.119C377.286 250.002 377.639 249.377 378.042 248.515C380.128 248.497 381.208 250.479 381.208 250.479L383.851 250.059C383.851 250.059 387.336 243.221 388.119 242.804C388.901 242.386 388.239 239.683 388.239 239.683V238.995C388.26 239.019 388.278 239.046 388.302 239.07V239.088C389.005 240.152 389.493 241.343 389.741 242.594L389.798 242.861Z" fill="black"/>
<path d="M381.389 250.657C381.389 250.657 379.884 247.899 377 248.917C377 248.917 375.378 252.222 373.756 252.757C372.134 253.291 372.675 255.094 376.341 254.436C380.007 253.778 385.533 253.234 385.533 253.234L385.774 249.873L389.5 245.135C389.5 245.135 391.721 243.125 388.417 239.169V239.857C388.417 239.857 389.079 242.561 388.296 242.978C387.514 243.396 384.04 250.236 384.04 250.236L381.389 250.657Z" fill="#1D2366"/>
<path opacity="0.1" d="M359.216 201.897C359.268 202.805 359.386 203.709 359.571 204.6C356.182 204.105 353.037 204.351 350.975 204.513V201.837L359.216 201.897Z" fill="black"/>
<path opacity="0.1" d="M389.921 205.973C389.921 205.973 385.106 206.208 379.363 206.256C379.201 204.754 379.164 203.516 379.164 203.516C379.164 203.516 382.409 199.01 388.356 203.876C388.832 204.265 389.25 204.718 389.599 205.222C389.693 205.478 389.8 205.729 389.921 205.973Z" fill="black"/>
<path d="M389.921 205.432C389.921 205.432 368.829 206.451 362.4 204.651C355.971 202.852 349.599 204.411 348.639 203.993C347.679 203.576 348.459 197.036 349.301 195.417C350.144 193.797 354.767 177.422 354.767 177.422L359.216 154.272L363.902 152.983L364.233 152.89L372.398 150.643L378.382 148.994C378.382 148.994 390.28 195.356 389.259 198.775C388.889 200.084 388.829 201.461 389.085 202.798C389.241 203.71 389.522 204.597 389.921 205.432Z" fill="#1D2366"/>
<path d="M343.709 138.44C343.709 138.44 339.496 142.946 342.686 145.458C345.876 147.969 347.974 145.698 347.974 145.698L343.709 138.44Z" fill="#C7DAF5"/>
<path opacity="0.1" d="M343.709 138.44C343.709 138.44 339.496 142.946 342.686 145.458C345.876 147.969 347.974 145.698 347.974 145.698L343.709 138.44Z" fill="black"/>
<path d="M377.753 108.814C377.753 108.814 377.259 109.282 376.516 109.973C375.456 110.962 373.888 112.407 372.498 113.617C370.571 115.29 368.982 116.519 369.551 115.471C370.12 114.422 370.012 112.596 369.729 110.886C369.708 110.772 369.69 110.658 369.669 110.547C369.434 109.292 369.124 108.052 368.739 106.834C368.739 106.834 371.851 102.82 373.572 101.237C374.213 100.636 374.662 100.39 374.689 100.808C374.719 101.369 375.14 102.61 375.664 103.926C375.679 103.968 375.694 104.007 375.712 104.049C376.061 104.95 376.456 105.876 376.802 106.675C377.331 107.9 377.753 108.814 377.753 108.814Z" fill="#FFB0B1"/>
<path opacity="0.1" d="M375.712 104.049C375.42 105.619 374.71 107.082 373.658 108.285C372.605 109.487 371.248 110.386 369.729 110.886C369.489 109.515 369.159 108.161 368.739 106.834C368.739 106.834 374.599 99.2784 374.689 100.807C374.71 101.387 375.167 102.673 375.712 104.049Z" fill="black"/>
<path opacity="0.1" d="M369.145 112.905L369.903 111.839C369.903 111.839 370.406 114.897 372.254 113.548C374.102 112.199 374.192 123.699 374.192 123.699L372.209 153.299L357.876 152.443L358.283 138.14L359.905 130.93L363.917 120.449L366.304 116.985L369.145 112.905Z" fill="black"/>
<path d="M374.192 123.882L372.386 150.646L372.197 153.482L364.206 153.004L363.905 152.986L357.885 152.626L358.292 138.32L359.914 131.11L363.926 120.629L366.313 117.165L369.154 113.07L369.912 112.007C369.912 112.007 370.415 115.065 372.263 113.716L372.302 113.689C374.108 112.548 374.192 123.882 374.192 123.882Z" fill="#1D2366"/>
<path d="M360.116 128.605C360.116 128.605 359.396 130.107 357.951 129.864C356.507 129.62 356.51 135.271 356.51 135.271C356.51 135.271 355.55 136.172 354.888 135.391C354.225 134.61 352.48 137.251 352.48 137.251L341.542 137.731C341.542 137.731 346.409 139.951 345.455 146.669C345.455 146.669 361.979 145.647 362.52 144.088C363.062 142.529 360.116 128.605 360.116 128.605Z" fill="white"/>
<path opacity="0.03" d="M360.116 128.605C360.116 128.605 359.396 130.107 357.951 129.864C356.507 129.62 356.51 135.271 356.51 135.271C356.51 135.271 355.55 136.172 354.888 135.391C354.225 134.61 352.48 137.251 352.48 137.251L341.542 137.731C341.542 137.731 346.409 139.951 345.455 146.669C345.455 146.669 361.979 145.647 362.52 144.088C363.062 142.529 360.116 128.605 360.116 128.605Z" fill="black"/>
<path d="M328.329 141.261L331.213 143.719L354.948 148.696L352.004 145.698L328.329 141.261Z" fill="white"/>
<path d="M369.19 113.851C368.796 114.452 367.667 117.529 366.725 120.214C365.939 122.452 365.283 124.42 365.283 124.42C365.283 124.42 363.751 134.376 362.969 136.175C362.186 137.975 362.611 144.992 362.611 144.992L359.694 162.323C359.694 162.323 358.373 171.26 356.332 176.599C354.319 181.853 352.076 184.316 352.007 184.395C352.91 183.175 357.831 159.16 357.831 159.16L359.456 128.872C359.456 128.872 359.694 125.994 359.935 123.534C360.176 121.073 365.051 117.715 365.051 117.715L369.753 111.043C370.225 111.673 369.909 112.773 369.19 113.851Z" fill="white"/>
<path d="M356.931 152.776C356.931 152.776 350.009 152.476 346.656 148.456C343.303 144.437 354.406 146.852 354.406 146.852L357.292 147.513L356.931 152.776Z" fill="#FFB0B1"/>
<path opacity="0.1" d="M389.259 198.778C388.889 200.087 388.829 201.465 389.085 202.801C381.533 203.335 373.455 201.299 373.455 201.299C371.95 202.681 367.986 204.717 367.986 204.717L365.825 177.981C364.444 174.376 363.902 155.489 363.902 155.489C363.902 155.489 364.025 154.5 364.203 153.019C364.203 152.983 364.203 152.944 364.218 152.908C364.757 148.771 365.825 141.006 366.349 139.957C367.071 138.515 364.128 134.679 364.128 134.679L365.467 123.278L365.629 121.902C368.453 120.644 370.617 116.624 370.617 116.624L372.278 113.719C374.084 112.563 374.177 123.897 374.177 123.897L372.371 150.661L378.355 149.012C378.355 149.012 390.28 195.36 389.259 198.778Z" fill="black"/>
<path d="M397.009 200.626C388.778 204.706 373.816 200.926 373.816 200.926C372.311 202.308 368.347 204.345 368.347 204.345L366.183 177.608C364.805 174.003 364.263 155.116 364.263 155.116C364.263 155.116 366.003 141.024 366.725 139.585C366.936 139.164 366.833 138.54 366.584 137.867C365.355 134.664 364.904 131.216 365.265 127.806L365.843 122.906L366.003 121.533C368.829 120.271 370.993 116.252 370.993 116.252L372.498 113.62L375.267 108.772L376.579 106.476L376.802 106.678L378.502 108.216C378.502 108.216 379.225 108.817 380.308 109.718C382.665 111.701 386.737 115.191 388.838 117.327C390.686 119.208 391.27 126.523 391.438 132.03C391.55 135.656 391.484 138.497 391.484 138.497C389.62 141.559 394.493 166.136 394.493 166.136C395.628 170.885 397.009 200.626 397.009 200.626Z" fill="white"/>
<path opacity="0.03" d="M381.208 116.192C381.208 116.192 375.559 126.926 376.215 131.005C376.871 135.085 378.737 139.702 377.837 140.781C377.528 141.189 377.128 141.521 376.669 141.75C376.21 141.978 375.705 142.098 375.192 142.099C374.289 142.16 371.881 143.839 371.881 144.019C371.881 144.199 369.657 144.199 367.667 145.04C365.678 145.882 362.74 146.359 362.74 146.359C362.74 146.359 357.022 146.179 356.489 146.72C355.956 147.261 355.408 150.496 356.549 153.077C357.69 155.657 358.957 157.583 359.914 157.934C360.871 158.286 366.945 156.255 371.872 155.774C376.799 155.294 382.147 151.397 382.147 151.397C382.147 151.397 388.037 149.294 389.07 145.758C390.102 142.223 387.809 122.789 387.809 122.789C387.809 122.789 386.075 113.731 381.208 116.192Z" fill="black"/>
<path opacity="0.03" d="M380.486 115.291C380.486 115.291 374.836 126.027 375.499 130.104C376.161 134.181 378.021 138.801 377.118 139.882C376.81 140.291 376.411 140.623 375.952 140.852C375.493 141.081 374.988 141.201 374.475 141.201C373.572 141.261 371.164 142.941 371.164 143.121C371.164 143.301 368.94 143.301 366.951 144.139C364.961 144.977 362.024 145.458 362.024 145.458C362.024 145.458 356.305 145.278 355.775 145.819C355.246 146.359 354.692 149.598 355.836 152.175C356.979 154.753 358.243 156.682 359.201 157.033C360.158 157.384 366.231 155.354 371.158 154.876C376.085 154.398 381.434 150.496 381.434 150.496C381.434 150.496 387.321 148.393 388.341 144.86C389.362 141.327 387.08 121.888 387.08 121.888C387.08 121.888 385.353 112.833 380.486 115.291Z" fill="black"/>
<path d="M381.031 115.651C381.031 115.651 375.381 126.388 376.043 130.464C376.705 134.541 378.566 139.161 377.666 140.24C377.358 140.65 376.958 140.983 376.499 141.212C376.04 141.442 375.533 141.561 375.02 141.562C374.117 141.622 371.709 143.301 371.709 143.478C371.709 143.656 369.488 143.659 367.496 144.5C365.503 145.341 362.569 145.818 362.569 145.818C362.569 145.818 356.85 145.638 356.317 146.179C355.784 146.72 355.237 149.958 356.377 152.536C357.518 155.113 358.785 157.042 359.742 157.393C360.699 157.745 366.773 155.714 371.7 155.233C376.627 154.753 381.976 150.856 381.976 150.856C381.976 150.856 387.866 148.754 388.898 145.218C389.93 141.682 387.652 122.248 387.652 122.248C387.652 122.248 385.894 113.206 381.031 115.651Z" fill="white"/>
<path opacity="0.1" d="M380.907 144.449C380.907 144.449 376.392 143.547 377.963 145.049C379.535 146.551 379.526 147.867 381.449 147.807C383.372 147.747 380.907 144.449 380.907 144.449Z" fill="black"/>
<path opacity="0.1" d="M388.537 176.767C388.537 176.767 386.496 178.146 390.4 181.324C394.304 184.503 388.537 176.767 388.537 176.767Z" fill="black"/>
<path opacity="0.1" d="M384.642 188.102C384.642 188.282 383.92 194.711 386.623 196.318C389.325 197.925 384.642 188.102 384.642 188.102Z" fill="black"/>
<path d="M341.729 137.716C339.55 137.791 334.842 138.455 337.283 143.001C339.441 147.023 343.068 144.334 345.109 142.295C344.611 140.393 343.401 138.754 341.729 137.716Z" fill="#FFB0B1"/>
<path d="M345.136 142.259L345.226 142.166L345.136 142.259Z" fill="#FFB0B1"/>
<path opacity="0.1" d="M380.308 109.901C377.997 111.478 376.058 112.809 375.679 113.085C374.644 113.851 372.669 118.349 371.396 120.644C370.382 122.491 367.086 122.966 365.843 123.083L366.003 121.71C368.829 120.448 370.993 116.429 370.993 116.429L376.579 106.653L378.502 108.399C378.502 108.399 379.225 109 380.308 109.901Z" fill="black"/>
<path d="M380.308 109.721C377.997 111.298 376.058 112.629 375.679 112.908C374.644 113.671 372.669 118.168 371.396 120.464C370.382 122.311 367.086 122.786 365.843 122.903L366.003 121.53C368.829 120.268 370.993 116.249 370.993 116.249L376.579 106.473L378.502 108.213C378.502 108.213 379.225 108.807 380.308 109.721Z" fill="#DCE7FF"/>
<path d="M375.86 102.066C375.861 103.87 375.313 105.631 374.289 107.116C373.079 108.873 371.278 110.138 369.214 110.682C367.149 111.227 364.957 111.015 363.036 110.084C361.115 109.154 359.591 107.567 358.742 105.611C357.893 103.656 357.774 101.461 358.407 99.4254C359.041 97.3899 360.384 95.6484 362.194 94.5168C364.003 93.3853 366.159 92.9388 368.271 93.2583C370.382 93.5778 372.309 94.6421 373.701 96.2581C375.094 97.8742 375.859 99.9349 375.86 102.066Z" fill="#FFB0B1"/>
<path opacity="0.1" d="M391.438 132.032C390.216 131.282 389.221 130.215 388.558 128.944C388.055 127.953 387.721 126.808 386.863 126.105C386.09 125.474 385.058 125.321 384.094 125.039C380.928 124.105 378.274 121.221 378.174 117.928C378.126 116.378 378.611 114.831 378.391 113.296C378.266 112.427 377.92 111.605 377.386 110.907C377.12 110.574 376.83 110.262 376.516 109.973C376.094 109.577 375.652 109.192 375.267 108.771C375.024 108.511 374.812 108.224 374.635 107.915C374.492 107.663 374.376 107.396 374.289 107.119C373.687 105.281 374.234 103.1 373.572 101.24L373.536 101.138C373.286 100.477 372.778 99.8161 372.07 99.7651C371.363 99.714 370.758 100.3 370.084 100.561C368.672 101.108 367.149 100.177 365.973 99.2273C364.796 98.278 363.468 97.1935 361.973 97.4038C360.982 97.545 360.2 98.2179 359.288 98.5664C359.082 98.646 358.869 98.7073 358.653 98.7497C359.425 96.8286 360.843 95.2357 362.663 94.2447C364.484 93.2537 366.593 92.9266 368.629 93.3193C370.665 93.7121 372.501 94.8004 373.82 96.3971C375.14 97.9939 375.861 99.9994 375.86 102.069C375.861 102.694 375.795 103.318 375.664 103.929C375.679 103.971 375.694 104.01 375.712 104.052C376.061 104.953 376.456 105.878 376.802 106.678L378.502 108.216C378.502 108.216 379.225 108.817 380.308 109.718C382.665 111.7 386.737 115.191 388.838 117.327C390.686 119.214 391.264 126.526 391.438 132.032Z" fill="black"/>
<path d="M359.183 93.0779C359.613 92.2037 359.827 91.2243 360.341 90.3952C361.097 89.1935 362.415 88.4245 363.769 87.9588C367.306 86.7422 374.779 84.9757 377.012 87.9588C377.452 88.5597 377.816 89.2266 378.424 89.6412C378.888 89.9566 379.447 90.0918 379.956 90.3291C381.38 90.996 382.289 92.45 382.773 93.9341C383.258 95.4181 383.402 97.0103 383.757 98.5394C384.212 100.501 385.009 102.361 385.804 104.208C386.74 106.389 387.733 108.651 389.539 110.192C392.004 112.295 392.549 115.272 394.836 117.58C397.545 120.319 397.458 124.841 396.061 128.431C395.878 128.902 395.67 129.395 395.742 129.897C395.815 130.398 396.188 130.855 396.54 131.254L398.021 132.922C394.517 133.766 390.553 131.939 388.922 128.734C388.42 127.743 388.085 126.601 387.225 125.895C386.454 125.264 385.419 125.114 384.459 124.832C381.292 123.894 378.638 121.007 378.538 117.715C378.49 116.168 378.975 114.621 378.755 113.088C378.633 112.214 378.285 111.386 377.747 110.685C376.919 109.607 375.67 108.883 374.996 107.681C373.855 105.671 374.722 103.061 373.9 100.904C373.648 100.243 373.142 99.5818 372.435 99.5308C371.727 99.4797 371.122 100.066 370.445 100.327C369.037 100.874 367.514 99.9453 366.337 98.993C365.16 98.0407 363.833 96.9592 362.334 97.1725C361.344 97.3107 360.564 97.9836 359.652 98.3351C358.978 98.5935 357.611 98.8248 357.021 98.257C355.775 97.1124 358.662 94.1474 359.183 93.0779Z" fill="#591D4B"/>
<path opacity="0.1" d="M389.759 127.743C389.253 126.751 388.922 125.61 388.061 124.907C387.291 124.276 386.255 124.123 385.292 123.84C382.129 122.906 379.474 120.019 379.372 116.727C379.324 115.179 379.809 113.629 379.592 112.097C379.466 111.228 379.119 110.406 378.584 109.709C377.753 108.63 376.504 107.906 375.833 106.705C374.692 104.698 375.559 102.087 374.734 99.9274C374.484 99.2695 373.976 98.6086 373.271 98.5545C372.567 98.5004 371.956 99.0923 371.282 99.3536C369.873 99.9004 368.347 98.9691 367.174 98.0198C366 97.0705 364.666 95.986 363.17 96.1963C362.18 96.3375 361.398 97.0104 360.489 97.3589C359.815 97.6172 358.445 97.8515 357.855 97.2838C356.615 96.0821 359.502 93.123 360.019 92.0596C360.45 91.1824 360.663 90.206 361.181 89.3769C361.208 89.3318 361.238 89.2868 361.268 89.2417C360.881 89.5619 360.547 89.9411 360.278 90.3652C359.763 91.1944 359.55 92.1677 359.119 93.0479C358.599 94.1114 355.712 97.0795 356.955 98.2721C357.557 98.8429 358.912 98.6086 359.586 98.3502C360.489 97.9987 361.277 97.3258 362.268 97.1876C363.772 96.9743 365.097 98.0588 366.271 99.0081C367.444 99.9574 368.979 100.889 370.382 100.342C371.056 100.081 371.646 99.4918 372.368 99.5459C373.091 99.5999 373.572 100.258 373.834 100.919C374.656 103.076 373.789 105.686 374.93 107.696C375.604 108.877 376.853 109.616 377.681 110.7C378.219 111.401 378.567 112.229 378.689 113.104C378.909 114.636 378.424 116.183 378.472 117.73C378.572 121.034 381.226 123.909 384.392 124.847C385.347 125.129 386.388 125.279 387.158 125.91C388.022 126.616 388.362 127.758 388.856 128.749C390.487 131.954 394.451 133.781 397.955 132.937L397.256 132.15C394.219 132.195 391.146 130.47 389.759 127.743Z" fill="black"/>
<path opacity="0.1" d="M369.009 114.032C368.615 114.633 367.486 117.709 366.544 120.395C365.663 120.052 364.862 117.868 364.862 117.868L369.563 111.193C370.045 111.854 369.729 112.95 369.009 114.032Z" fill="black"/>
<path d="M369.19 113.851C368.796 114.452 367.667 117.528 366.725 120.214C365.843 119.875 365.043 117.688 365.043 117.688L369.744 111.016C370.225 111.673 369.909 112.773 369.19 113.851Z" fill="#DCE7FF"/>
<path d="M341.855 144.542L339.249 136.337C339.218 136.241 339.206 136.14 339.215 136.04C339.223 135.939 339.251 135.841 339.298 135.752C339.344 135.662 339.408 135.582 339.485 135.518C339.563 135.453 339.652 135.403 339.748 135.373C339.942 135.313 340.152 135.331 340.333 135.425C340.513 135.518 340.649 135.679 340.711 135.872L343.318 144.067L343.059 145.782L341.855 144.542Z" fill="#BE8B87"/>
<path opacity="0.1" d="M339.496 135.616C339.69 135.555 339.901 135.573 340.082 135.667C340.263 135.76 340.4 135.921 340.462 136.115L343.068 144.31L342.873 145.596L343.062 145.795L343.321 144.079L340.699 135.884C340.637 135.691 340.501 135.53 340.321 135.437C340.14 135.343 339.93 135.325 339.736 135.385C339.573 135.438 339.432 135.544 339.336 135.686C339.387 135.658 339.441 135.635 339.496 135.616Z" fill="white"/>
<path d="M341.855 144.542L343.318 144.079L343.104 145.485L343.059 145.795L342.632 145.35L341.855 144.542Z" fill="#EFC8C4"/>
<path d="M342.632 145.35C342.657 145.318 342.689 145.291 342.725 145.272C342.746 145.258 342.771 145.251 342.796 145.251C342.821 145.251 342.845 145.258 342.867 145.272C342.887 145.296 342.904 145.324 342.918 145.353C342.938 145.386 342.965 145.414 342.997 145.436C343.029 145.457 343.066 145.471 343.104 145.476L343.059 145.776L342.632 145.35Z" fill="#727A9C"/>
<path d="M339.234 139.251C339.234 139.251 344.462 139.221 343.231 141.441C342 143.662 340.076 143.929 340.076 143.929L339.234 139.251Z" fill="#FFB0B1"/>
<path d="M306.719 39.6193H306.493C297.512 39.6193 289.569 44.3628 285 51.3624C280.431 44.3628 272.489 39.6193 263.507 39.6193H263.282C256.542 39.6834 250.099 42.3999 245.354 47.1785C240.61 51.9571 237.946 58.4116 237.942 65.1394C237.942 73.4939 241.608 85.3482 248.757 95.1026C262.376 113.689 285 129.951 285 129.951C285 129.951 307.625 113.692 321.241 95.1026C328.392 85.3482 332.055 73.4939 332.055 65.1394C332.052 58.4121 329.388 51.958 324.644 47.1795C319.9 42.401 313.459 39.6842 306.719 39.6193ZM303.489 96.5326C302.467 96.5287 301.469 96.2162 300.627 95.6361C299.785 95.056 299.139 94.2354 298.773 93.2821H293.404C293.05 93.2799 292.706 93.1675 292.419 92.9607C292.133 92.7539 291.918 92.463 291.805 92.1285L290.156 87.1687L284.937 105.371C284.836 105.721 284.623 106.029 284.331 106.249C284.039 106.468 283.683 106.587 283.318 106.587H283.213C282.831 106.569 282.468 106.421 282.183 106.167C281.898 105.913 281.709 105.57 281.647 105.193L276.269 72.9051L272.338 92.0113C272.248 92.3743 272.039 92.6967 271.744 92.927C271.448 93.1573 271.085 93.2823 270.71 93.2821H263.146C262.92 93.2917 262.693 93.2554 262.481 93.1754C262.269 93.0954 262.075 92.9733 261.911 92.8166C261.747 92.6598 261.617 92.4716 261.528 92.2633C261.439 92.055 261.393 91.8308 261.393 91.6043C261.393 91.3778 261.439 91.1536 261.528 90.9453C261.617 90.7369 261.747 90.5487 261.911 90.392C262.075 90.2352 262.269 90.1132 262.481 90.0332C262.693 89.9532 262.92 89.9169 263.146 89.9265H269.386L274.954 64.2381C275.045 63.8583 275.266 63.522 275.578 63.2867C275.89 63.0514 276.275 62.9316 276.666 62.9479C277.057 62.9642 277.43 63.1156 277.722 63.3762C278.013 63.6367 278.205 63.9902 278.264 64.3763L283.757 97.3136L288.434 81.0282C288.532 80.6852 288.738 80.3829 289.021 80.1663C289.305 79.9497 289.651 79.8306 290.009 79.8266H290.042C290.395 79.8267 290.74 79.9383 291.027 80.1454C291.313 80.3526 291.527 80.6447 291.637 80.9802L294.62 89.9355H298.707C298.997 89.0543 299.526 88.2703 300.235 87.6702C300.944 87.07 301.805 86.677 302.724 86.5345C303.642 86.392 304.582 86.5055 305.44 86.8626C306.298 87.2197 307.04 87.8064 307.585 88.558C308.13 89.3095 308.456 90.1968 308.528 91.1218C308.599 92.0467 308.414 92.9735 307.991 93.7997C307.568 94.6259 306.925 95.3195 306.132 95.8039C305.339 96.2882 304.428 96.5446 303.498 96.5446L303.489 96.5326Z" fill="#EC5863"/>
</g>
<g filter="url(#filter0_d_6_373)">
<circle cx="260.585" cy="142" r="20.3936" fill="#587EEC"/>
</g>
<path d="M267.383 142L257.186 147.887L257.186 136.113L267.383 142Z" fill="white"/>
<defs>
<filter id="filter0_d_6_373" x="238.192" y="121.606" width="44.7872" height="44.7872" filterUnits="userSpaceOnUse" color-interpolation-filters="sRGB">
<feFlood flood-opacity="0" result="BackgroundImageFix"/>
<feColorMatrix in="SourceAlpha" type="matrix" values="0 0 0 0 0 0 0 0 0 0 0 0 0 0 0 0 0 0 127 0" result="hardAlpha"/>
<feOffset dy="2"/>
<feGaussianBlur stdDeviation="1"/>
<feColorMatrix type="matrix" values="0 0 0 0 0 0 0 0 0 0 0 0 0 0 0 0 0 0 0.16 0"/>
<feBlend mode="normal" in2="BackgroundImageFix" result="effect1_dropShadow_6_373"/>
<feBlend mode="normal" in="SourceGraphic" in2="effect1_dropShadow_6_373" result="shape"/>
</filter>
<linearGradient id="paint0_linear_6_373" x1="201.518" y1="256.953" x2="201.518" y2="72.0969" gradientUnits="userSpaceOnUse">
<stop stop-color="#808080" stop-opacity="0.25"/>
<stop offset="0.54" stop-color="#808080" stop-opacity="0.12"/>
<stop offset="1" stop-color="#808080" stop-opacity="0.1"/>
</linearGradient>
<linearGradient id="paint1_linear_6_373" x1="67277.3" y1="139501" x2="67277.3" y2="44612.4" gradientUnits="userSpaceOnUse">
<stop stop-color="#808080" stop-opacity="0.25"/>
<stop offset="0.54" stop-color="#808080" stop-opacity="0.12"/>
<stop offset="1" stop-color="#808080" stop-opacity="0.1"/>
</linearGradient>
</defs>
</svg>
